<svg width="2000" height="512" viewBox="0 0 2000 512" fill="none" xmlns="http://www.w3.org/2000/svg">
<path fill-rule="evenodd" clip-rule="evenodd" d="M438.542 105.684L533.985 105.74C539.401 105.74 544.999 105.603 550.69 105.463C570.442 104.978 591.303 104.465 609.493 109.602C610.282 109.821 611.069 110.049 611.852 110.287C612.635 110.526 613.416 110.774 614.193 111.031C614.97 111.288 615.745 111.556 616.516 111.833C617.287 112.11 618.054 112.396 618.817 112.692C619.58 112.988 620.34 113.293 621.097 113.608C621.853 113.923 622.605 114.247 623.353 114.58C624.101 114.913 624.845 115.256 625.584 115.608C626.323 115.96 627.058 116.321 627.789 116.692C628.52 117.062 629.245 117.441 629.966 117.829C630.687 118.218 631.404 118.615 632.115 119.021C632.826 119.427 633.532 119.842 634.233 120.265C634.934 120.689 635.63 121.121 636.32 121.562C637.01 122.003 637.695 122.452 638.374 122.91C639.053 123.368 639.727 123.834 640.394 124.309C641.061 124.784 641.723 125.266 642.379 125.757C643.034 126.248 643.684 126.748 644.327 127.255C644.97 127.762 645.606 128.277 646.237 128.8C646.867 129.323 647.491 129.853 648.108 130.392C648.725 130.931 649.336 131.477 649.939 132.03C650.543 132.584 651.14 133.145 651.729 133.714C652.319 134.282 652.902 134.858 653.477 135.441C654.052 136.024 654.62 136.614 655.181 137.211C655.742 137.808 656.296 138.412 656.841 139.023C657.387 139.634 657.925 140.251 658.456 140.875C658.986 141.5 659.508 142.13 660.023 142.767C660.538 143.404 661.045 144.048 661.544 144.698C662.043 145.347 662.533 146.003 663.016 146.665C663.499 147.327 663.973 147.995 664.439 148.669C664.905 149.343 665.362 150.022 665.811 150.707C666.26 151.392 666.701 152.083 667.133 152.779C667.565 153.475 667.988 154.176 668.403 154.883C668.818 155.59 669.223 156.301 669.62 157.018C682.119 179.493 686.491 206.307 679.351 231.231C674.935 246.646 664.382 266.8 649.862 274.871C657.503 277.644 664.164 285.021 668.686 291.562C669.061 292.109 669.43 292.66 669.792 293.215C670.154 293.771 670.509 294.331 670.857 294.895C671.205 295.46 671.546 296.028 671.879 296.601C672.213 297.174 672.54 297.75 672.86 298.331C673.179 298.912 673.492 299.497 673.797 300.086C674.102 300.674 674.4 301.266 674.691 301.862C674.982 302.458 675.265 303.058 675.541 303.661C675.817 304.264 676.085 304.87 676.346 305.48C676.607 306.089 676.86 306.702 677.106 307.318C677.352 307.933 677.59 308.552 677.82 309.174C678.051 309.796 678.274 310.421 678.489 311.048C678.704 311.675 678.911 312.304 679.111 312.937C679.31 313.569 679.502 314.204 679.686 314.841C679.87 315.478 680.046 316.118 680.214 316.759C680.382 317.4 680.542 318.044 680.694 318.689C680.846 319.334 680.99 319.982 681.127 320.631C681.263 321.28 681.391 321.93 681.511 322.582C681.632 323.235 681.744 323.888 681.848 324.543C681.952 325.198 682.048 325.854 682.135 326.511C682.223 327.168 682.303 327.827 682.375 328.486C682.446 329.145 682.51 329.805 682.565 330.466C682.62 331.127 682.667 331.788 682.706 332.45C682.745 333.112 682.776 333.774 682.799 334.437C682.822 335.1 682.836 335.763 682.842 336.426C682.848 337.089 682.846 337.752 682.836 338.415C682.826 339.078 682.808 339.741 682.781 340.404C682.755 341.067 682.72 341.729 682.677 342.39C682.634 343.052 682.583 343.713 682.524 344.374C682.465 345.034 682.398 345.694 682.323 346.353C682.247 347.012 682.163 347.669 682.072 348.326C681.981 348.983 681.881 349.638 681.773 350.292C681.665 350.947 681.549 351.6 681.425 352.251C679.581 362.356 673.893 382.294 665.049 388.399C664.762 393.132 657.669 400.076 653.515 404.143C653.026 404.622 652.577 405.061 652.185 405.452C640.058 417.553 624.476 427.089 607.836 431.423C590.439 435.955 570.216 435.416 551.153 434.909C545.283 434.753 539.523 434.599 533.989 434.598L438.495 434.518L438.542 105.684ZM502.616 303.938L554.531 303.777C557.276 303.77 560.088 303.706 562.936 303.642L562.94 303.642C572.901 303.416 583.287 303.181 592.669 305.321C601.795 307.403 610.532 312.458 615.517 320.574C619.92 327.743 620.823 336.908 618.892 345.008C617.422 351.172 614.225 357.32 608.729 360.727C608.531 361.776 607.529 362.784 606.794 363.507C602.609 367.624 596.169 369.304 590.558 370.241C581.847 371.695 572.751 371.563 563.804 371.433C561.241 371.396 558.689 371.359 556.163 371.359L502.599 371.306C502.735 348.85 502.741 326.394 502.616 303.938ZM524.255 170.47C515.675 170.656 508.077 170.82 502.673 170.788L502.683 235.661L557.831 235.808C560.46 235.812 563.118 235.856 565.79 235.901C575.047 236.055 584.475 236.213 593.47 234.696C598.288 233.884 604.103 232.28 607.657 228.676C608.295 228.029 609.06 227.092 609.318 226.201C613.932 223.589 616.833 218.614 618.251 213.605C620.638 205.175 619.724 195.404 615.328 187.777C610.744 179.822 602.246 174.702 593.543 172.439C581.232 169.236 548.744 169.94 524.255 170.47Z" fill="#2C4657"/>
<path fill-rule="evenodd" clip-rule="evenodd" d="M783.02 105.378C769.655 105.092 756.116 104.802 743.135 106.013C744.705 113.481 744.394 122.373 744.101 130.731C743.989 133.922 743.88 137.034 743.88 139.96L743.872 208.822L743.87 356.047C743.869 363.88 743.971 371.764 744.073 379.666C744.292 396.614 744.511 413.641 743.717 430.414C743.62 432.477 743.056 434.285 741.96 436.026C749.267 436.023 756.577 436.048 763.888 436.074C778.543 436.124 793.201 436.174 807.844 436.001C808.672 434.618 809.197 433.239 809.339 431.631C810.31 420.689 810.982 350.444 809.023 342.188C808.777 341.149 808.363 340.238 807.937 339.301C807.802 339.003 807.666 338.703 807.534 338.396C807.511 338.342 807.486 338.289 807.461 338.236C807.446 338.204 807.432 338.172 807.417 338.14C812.968 341.473 874.957 418.019 877.104 424.111C880.209 421.975 886.101 413.506 886.572 409.735C886.587 409.612 886.585 409.474 886.576 409.337C886.567 409.19 886.551 409.043 886.541 408.917C889.14 406.992 923.6 353.416 924.276 349.55C924.345 349.15 924.38 348.746 924.398 348.342C922.713 342.502 908.447 325.747 903.236 322.8C903.109 322.728 902.979 322.66 902.851 322.59C925.912 317.586 946.66 297.577 959.013 278.324C975.43 252.739 982.174 221.389 975.586 191.49C975.391 190.601 975.185 189.714 974.968 188.83C974.751 187.945 974.524 187.064 974.285 186.185C974.047 185.306 973.798 184.431 973.539 183.558C973.28 182.685 973.01 181.815 972.729 180.949C972.448 180.083 972.157 179.22 971.856 178.361C971.554 177.502 971.242 176.647 970.92 175.795C970.597 174.944 970.265 174.096 969.922 173.253C969.579 172.41 969.226 171.57 968.863 170.735C968.5 169.9 968.126 169.07 967.743 168.244C967.36 167.419 966.966 166.598 966.563 165.781C966.16 164.965 965.746 164.154 965.323 163.348C964.9 162.542 964.468 161.741 964.025 160.945C963.582 160.15 963.13 159.36 962.669 158.575C962.207 157.79 961.736 157.011 961.255 156.238C960.774 155.465 960.284 154.697 959.785 153.936C959.286 153.175 958.778 152.42 958.26 151.671C957.743 150.922 957.216 150.179 956.68 149.443C956.145 148.707 955.6 147.977 955.047 147.254C954.494 146.531 953.932 145.815 953.361 145.106C952.79 144.397 952.211 143.695 951.623 143C951.036 142.305 950.44 141.617 949.835 140.936C949.23 140.255 948.618 139.582 947.997 138.916C947.376 138.251 946.748 137.593 946.111 136.942C945.474 136.291 944.83 135.649 944.177 135.014C943.525 134.379 942.865 133.752 942.197 133.133C941.53 132.514 940.855 131.904 940.172 131.302C939.489 130.699 938.8 130.105 938.103 129.52C937.406 128.934 936.703 128.357 935.992 127.789C935.281 127.22 934.563 126.66 933.839 126.109C933.114 125.558 932.383 125.016 931.645 124.483C930.908 123.95 930.164 123.425 929.414 122.91C928.663 122.395 927.907 121.889 927.144 121.392C925.827 120.535 924.489 119.712 923.13 118.923C921.771 118.134 920.394 117.381 918.997 116.662C917.6 115.943 916.185 115.261 914.753 114.614C913.322 113.967 911.874 113.356 910.411 112.783C908.948 112.21 907.472 111.674 905.982 111.176C904.493 110.678 902.991 110.218 901.478 109.796C899.965 109.374 898.442 108.991 896.909 108.647C895.376 108.302 893.835 107.997 892.287 107.731C873.008 104.314 845.919 104.852 822.125 105.324C814.393 105.478 807.009 105.624 800.355 105.626C794.65 105.628 788.852 105.503 783.02 105.378ZM878.45 170.726C866.509 167.809 820.592 167.396 808.735 169.525C810.769 178.208 810.256 262.973 808.177 266.228C808.123 266.312 808.067 266.394 808.011 266.475C807.976 266.527 807.94 266.579 807.905 266.632L842.98 266.733C845.055 266.736 847.2 266.766 849.391 266.796C866.867 267.038 887.365 267.321 900.125 254.414C900.826 253.704 901.334 252.794 901.678 251.863C908.776 247.669 913.173 237.217 915.101 229.573C918.139 217.528 916.569 204.083 910.116 193.397C903.146 181.855 891.457 173.903 878.45 170.726Z" fill="#2C4657"/>
<path fill-rule="evenodd" clip-rule="evenodd" d="M1763.29 87.2403C1762.54 87.285 1761.8 87.3549 1761.06 87.45C1752.24 90.1062 1744.36 94.172 1739.78 102.609C1736.96 107.811 1736 114.205 1735.61 120.044C1735.05 128.438 1735.19 136.997 1735.33 145.499C1735.38 148.969 1735.44 152.429 1735.45 155.865L1735.56 222.447L1735.44 296.009C1735.44 299.807 1735.4 303.622 1735.35 307.445C1735.25 317.41 1735.14 327.422 1735.71 337.306C1735.96 342.003 1736.48 346.668 1737.29 351.301C1738.1 355.934 1739.18 360.502 1740.53 365.005C1748.2 390.134 1765.16 412.818 1788.56 425.269C1814.3 438.967 1841.75 443.011 1869.77 434.413C1876.95 432.207 1899.01 423.924 1902.69 417.251C1902.82 417.03 1902.84 416.984 1902.9 416.825L1902.94 416.731C1920.49 407.209 1933.63 382.577 1939.1 364.138C1946.07 340.67 1940.78 318.038 1929.26 296.93C1928.88 296.235 1928.49 295.544 1928.1 294.859C1927.71 294.173 1927.3 293.492 1926.89 292.817C1926.48 292.141 1926.05 291.471 1925.62 290.806C1925.19 290.141 1924.76 289.481 1924.31 288.826C1923.86 288.172 1923.41 287.523 1922.95 286.88C1922.49 286.237 1922.02 285.599 1921.54 284.968C1921.07 284.337 1920.58 283.711 1920.09 283.092C1919.6 282.472 1919.1 281.859 1918.59 281.252C1918.08 280.645 1917.57 280.044 1917.04 279.45C1916.52 278.855 1915.99 278.267 1915.45 277.686C1914.92 277.105 1914.37 276.53 1913.82 275.963C1913.27 275.395 1912.71 274.834 1912.14 274.28C1911.79 273.937 1911.44 273.596 1911.09 273.258C1910.87 273.051 1910.65 272.845 1910.43 272.64C1909.85 272.1 1909.26 271.567 1908.67 271.042C1908.08 270.517 1907.48 269.999 1906.88 269.489C1906.27 268.978 1905.66 268.475 1905.04 267.98C1904.43 267.485 1903.8 266.997 1903.17 266.517C1902.54 266.038 1901.91 265.566 1901.27 265.101C1900.63 264.637 1899.98 264.181 1899.33 263.733C1898.68 263.285 1898.02 262.845 1897.35 262.413C1896.69 261.981 1896.02 261.557 1895.35 261.142C1894.68 260.727 1894 260.321 1893.31 259.922C1892.63 259.523 1891.94 259.133 1891.25 258.752C1890.56 258.371 1889.86 257.998 1889.15 257.634C1888.45 257.27 1887.74 256.915 1887.03 256.568C1886.32 256.221 1885.61 255.883 1884.89 255.554C1884.17 255.225 1883.44 254.906 1882.71 254.595C1881.98 254.284 1881.25 253.982 1880.52 253.689C1879.79 253.396 1879.05 253.113 1878.3 252.838C1877.56 252.563 1876.82 252.298 1876.07 252.042C1875.32 251.786 1874.57 251.539 1873.81 251.301C1873.06 251.064 1872.3 250.836 1871.54 250.617C1853.04 245.186 1832.22 245.203 1813.91 251.372C1810.93 252.377 1807.99 253.602 1805.06 254.827C1801.54 256.295 1798.03 257.761 1794.45 258.843C1796.7 253.775 1797.09 136.822 1796.37 121.446C1796.14 116.463 1795.75 110.493 1793.99 105.83C1791.35 98.8017 1785.34 92.9851 1778.55 89.9732C1777.87 89.673 1777.18 89.3962 1776.47 89.1429C1775.77 88.8896 1775.06 88.6604 1774.35 88.4551C1773.63 88.2499 1772.91 88.0692 1772.18 87.913C1771.45 87.7567 1770.71 87.6254 1769.98 87.5189C1769.24 87.4124 1768.5 87.3311 1767.75 87.2749C1767.01 87.2186 1766.27 87.1876 1765.52 87.1818C1764.77 87.1761 1764.03 87.1956 1763.29 87.2403ZM1862.75 312.374C1852.62 306.044 1841.6 305.561 1830.11 307.297C1818.96 311.623 1809.35 317.322 1804.3 328.797C1804.08 329.314 1803.87 329.836 1803.67 330.363C1803.47 330.89 1803.29 331.422 1803.12 331.959C1802.95 332.495 1802.79 333.035 1802.64 333.579C1802.55 333.929 1802.46 334.28 1802.38 334.632C1802.34 334.828 1802.29 335.025 1802.25 335.222C1802.13 335.773 1802.03 336.326 1801.94 336.881C1801.85 337.437 1801.77 337.995 1801.71 338.554C1801.65 339.114 1801.6 339.675 1801.56 340.236C1801.53 340.798 1801.51 341.361 1801.5 341.924C1801.49 342.487 1801.5 343.049 1801.52 343.612C1801.54 344.175 1801.57 344.737 1801.62 345.298C1801.67 345.859 1801.74 346.418 1801.81 346.976C1801.89 347.534 1801.98 348.09 1802.08 348.643C1802.14 348.965 1802.21 349.286 1802.28 349.606C1802.33 349.836 1802.38 350.066 1802.43 350.295C1802.56 350.842 1802.71 351.386 1802.87 351.927C1803.02 352.467 1803.19 353.003 1803.38 353.536C1803.56 354.068 1803.76 354.595 1803.97 355.117C1807.88 364.919 1816.08 372.739 1825.73 376.85C1831.98 379.513 1842.77 381.125 1849.22 378.432C1849.38 378.364 1849.56 378.256 1849.71 378.162L1849.79 378.115C1859.81 375.945 1869.17 370.207 1874.79 361.477C1875.1 361.004 1875.39 360.523 1875.67 360.035C1875.96 359.547 1876.23 359.053 1876.48 358.552C1876.74 358.051 1876.99 357.543 1877.22 357.03C1877.45 356.517 1877.67 355.998 1877.88 355.473C1878.09 354.949 1878.28 354.42 1878.46 353.886C1878.64 353.352 1878.81 352.814 1878.96 352.272C1879.11 351.729 1879.25 351.184 1879.38 350.635C1879.45 350.339 1879.51 350.042 1879.57 349.744C1879.63 349.489 1879.67 349.235 1879.72 348.979C1879.82 348.424 1879.91 347.867 1879.98 347.308C1880.05 346.749 1880.11 346.188 1880.15 345.626C1880.2 345.065 1880.23 344.502 1880.25 343.938C1880.26 343.375 1880.26 342.811 1880.25 342.248C1880.24 341.684 1880.22 341.121 1880.18 340.559C1880.14 339.997 1880.09 339.436 1880.02 338.876C1879.98 338.573 1879.94 338.271 1879.9 337.97C1879.86 337.714 1879.82 337.458 1879.78 337.203C1879.73 336.917 1879.67 336.632 1879.62 336.348C1879.56 336.079 1879.51 335.811 1879.45 335.544C1879.31 334.949 1879.16 334.357 1878.99 333.77C1878.82 333.183 1878.64 332.6 1878.44 332.021C1878.25 331.442 1878.04 330.869 1877.81 330.301C1877.58 329.733 1877.34 329.171 1877.09 328.614C1876.84 328.058 1876.58 327.508 1876.3 326.965C1876.02 326.422 1875.73 325.887 1875.42 325.358C1875.11 324.829 1874.79 324.309 1874.46 323.796C1874.13 323.283 1873.78 322.779 1873.42 322.283C1873.07 321.788 1872.7 321.301 1872.31 320.824C1871.93 320.347 1871.54 319.879 1871.14 319.421C1870.73 318.963 1870.32 318.515 1869.89 318.078C1869.46 317.641 1869.03 317.214 1868.58 316.798C1868.13 316.383 1867.67 315.978 1867.2 315.585C1866.73 315.192 1866.26 314.811 1865.77 314.442C1865.28 314.073 1864.79 313.715 1864.29 313.37C1863.78 313.025 1863.27 312.693 1862.75 312.374Z" fill="#D09468"/>
<path d="M1128.27 105.037C1128.68 104.974 1129.08 104.918 1129.49 104.871C1138.12 103.857 1147.3 104.587 1154.35 110.181C1158.13 113.185 1161.02 117.607 1163.64 121.641C1173.66 137.106 1182.72 153.363 1192.15 169.21L1244.8 257.711L1294.07 340.458C1302.88 355.26 1312.3 369.98 1320.45 385.145C1323.08 390.034 1325.65 395.055 1326.26 400.651C1326.32 401.16 1326.36 401.671 1326.39 402.182C1326.42 402.694 1326.44 403.206 1326.45 403.718C1326.46 404.231 1326.45 404.743 1326.43 405.255C1326.41 405.768 1326.38 406.279 1326.34 406.79C1326.29 407.3 1326.23 407.809 1326.16 408.317C1326.09 408.825 1326.01 409.331 1325.91 409.834C1325.82 410.337 1325.71 410.838 1325.59 411.336C1325.47 411.834 1325.34 412.329 1325.19 412.821C1325.04 413.312 1324.89 413.8 1324.72 414.283C1324.55 414.766 1324.36 415.245 1324.17 415.72C1323.98 416.195 1323.77 416.664 1323.55 417.128C1323.34 417.592 1323.11 418.05 1322.87 418.503C1322.63 418.955 1322.38 419.401 1322.11 419.841C1321.85 420.281 1321.58 420.714 1321.29 421.141C1321 421.567 1320.71 421.986 1320.41 422.397C1320.1 422.809 1319.79 423.213 1319.46 423.608C1319.16 423.979 1318.85 424.341 1318.53 424.696C1318.21 425.051 1317.88 425.398 1317.54 425.737C1317.21 426.076 1316.86 426.406 1316.51 426.727C1316.16 427.049 1315.79 427.362 1315.42 427.665C1315.05 427.968 1314.68 428.262 1314.29 428.547C1313.91 428.832 1313.52 429.106 1313.12 429.371C1312.73 429.636 1312.32 429.891 1311.91 430.136C1311.5 430.381 1311.09 430.616 1310.66 430.84C1310.24 431.064 1309.81 431.277 1309.38 431.48C1308.95 431.683 1308.51 431.875 1308.07 432.056C1307.63 432.237 1307.18 432.406 1306.73 432.565C1306.28 432.724 1305.83 432.871 1305.37 433.007C1304.91 433.143 1304.45 433.268 1303.99 433.381C1303.52 433.494 1303.06 433.595 1302.59 433.685C1302.12 433.774 1301.64 433.852 1301.17 433.918C1300.7 433.984 1300.22 434.038 1299.75 434.081C1292.06 434.724 1282.99 432.555 1277.15 427.288C1267.33 418.412 1243.85 374.566 1235.53 360.615L1162.51 238.106C1157.73 229.966 1144.53 204.095 1138.27 198.942C1138.21 198.896 1138.16 198.852 1138.1 198.807C1137.82 197.181 1137.53 196.669 1136.49 195.39C1134.19 196.329 1132.85 198.899 1131.56 200.905C1120.38 218.323 1110.6 236.962 1100.04 254.807L1029.06 374.735C1019.98 390.156 1011.42 407.959 1000.6 422.078C997.44 426.2 993.706 429.32 988.953 431.46C981.913 434.63 973.167 435.274 965.892 432.489C965.419 432.309 964.952 432.117 964.489 431.914C964.026 431.711 963.569 431.497 963.116 431.271C962.663 431.046 962.217 430.809 961.776 430.561C961.335 430.313 960.901 430.054 960.474 429.785C960.046 429.516 959.625 429.236 959.21 428.946C958.796 428.656 958.389 428.356 957.99 428.046C957.591 427.736 957.199 427.416 956.816 427.087C956.433 426.757 956.058 426.418 955.691 426.07C955.324 425.722 954.966 425.365 954.617 424.999C954.268 424.634 953.928 424.26 953.597 423.877C953.266 423.494 952.945 423.104 952.634 422.706C952.323 422.307 952.021 421.901 951.73 421.488C951.439 421.075 951.158 420.654 950.887 420.227C950.616 419.8 950.356 419.366 950.107 418.926C949.858 418.486 949.62 418.04 949.393 417.588C949.166 417.137 948.95 416.68 948.745 416.217C948.553 415.782 948.372 415.343 948.202 414.899C948.032 414.456 947.873 414.008 947.726 413.556C947.579 413.105 947.443 412.65 947.318 412.191C947.193 411.733 947.079 411.272 946.978 410.807C946.876 410.343 946.786 409.877 946.708 409.408C946.629 408.939 946.563 408.469 946.508 407.997C946.453 407.525 946.41 407.052 946.379 406.578C946.348 406.104 946.329 405.629 946.322 405.154C946.315 404.679 946.319 404.204 946.335 403.729C946.352 403.254 946.38 402.78 946.42 402.306C946.46 401.833 946.512 401.361 946.576 400.89C946.64 400.419 946.715 399.95 946.802 399.483C946.889 399.016 946.988 398.551 947.099 398.089C947.21 397.627 947.332 397.168 947.465 396.712C947.598 396.256 947.743 395.804 947.899 395.355C948.055 394.906 948.222 394.462 948.401 394.021C954.565 378.477 965.384 363.317 973.914 348.935L1024.21 264.155L1081.38 167.428C1091.46 150.276 1100.87 131.203 1112.8 115.313C1116.91 109.839 1122.2 107.661 1128.27 105.037Z" fill="#2C4657"/>
<path fill-rule="evenodd" clip-rule="evenodd" d="M1635.44 262.618C1613.24 248.743 1589.05 245.337 1563.4 247.694C1533.54 254.24 1508.21 268.404 1491.39 294.698C1478.61 314.698 1474.94 337.027 1480.08 360.142C1480.26 360.939 1480.45 361.734 1480.65 362.527C1480.85 363.32 1481.06 364.111 1481.28 364.898C1481.5 365.685 1481.73 366.47 1481.97 367.252C1482.21 368.034 1482.46 368.813 1482.72 369.589C1482.98 370.365 1483.25 371.138 1483.52 371.907C1483.8 372.676 1484.09 373.441 1484.38 374.204C1484.68 374.966 1484.99 375.724 1485.3 376.479C1485.61 377.234 1485.94 377.984 1486.27 378.731C1486.6 379.478 1486.95 380.22 1487.3 380.959C1487.65 381.697 1488.01 382.431 1488.38 383.16C1488.75 383.889 1489.12 384.614 1489.51 385.335C1489.9 386.055 1490.3 386.77 1490.7 387.48C1490.98 387.975 1491.27 388.467 1491.56 388.957C1491.69 389.17 1491.81 389.383 1491.94 389.596C1492.37 390.296 1492.8 390.991 1493.24 391.681C1493.67 392.37 1494.12 393.054 1494.58 393.733C1495.03 394.412 1495.5 395.085 1495.97 395.752C1496.44 396.419 1496.92 397.081 1497.41 397.736C1497.9 398.391 1498.4 399.04 1498.9 399.683C1499.41 400.326 1499.92 400.963 1500.44 401.594C1500.96 402.225 1501.49 402.849 1502.03 403.466C1502.56 404.083 1503.11 404.694 1503.66 405.298C1504.21 405.903 1504.76 406.5 1505.33 407.09C1505.9 407.681 1506.47 408.264 1507.05 408.84C1507.63 409.417 1508.22 409.986 1508.81 410.548C1509.4 411.11 1510 411.664 1510.61 412.211C1511.22 412.758 1511.83 413.298 1512.45 413.83C1513.08 414.362 1513.71 414.886 1514.34 415.403C1514.97 415.92 1515.61 416.429 1516.26 416.93C1516.9 417.431 1517.55 417.923 1518.21 418.408C1518.87 418.893 1519.53 419.369 1520.2 419.838C1520.87 420.307 1521.55 420.767 1522.23 421.219C1522.91 421.67 1523.6 422.114 1524.29 422.549C1544.02 435.049 1571.26 442.597 1594.47 437.339C1594.78 437.268 1595.11 437.2 1595.44 437.131C1596.93 436.816 1598.52 436.482 1599.79 435.742C1602.69 435.234 1605.97 433.769 1609.24 432.309C1613.46 430.424 1617.67 428.546 1621.02 428.745C1621.06 428.935 1621.11 429.281 1621.18 429.722C1621.49 431.666 1622.09 435.45 1622.57 435.807C1625.93 438.299 1653.42 437.52 1669.56 437.062C1674.21 436.931 1677.92 436.825 1679.84 436.833C1683.19 431.494 1682.1 354.606 1681.48 342.467C1681.16 335.856 1680.28 329.32 1678.85 322.859C1678.75 322.412 1678.64 321.967 1678.53 321.521C1678.45 321.195 1678.36 320.869 1678.28 320.544C1678.09 319.775 1677.88 319.008 1677.66 318.244C1677.45 317.48 1677.22 316.719 1676.98 315.96C1676.75 315.201 1676.5 314.446 1676.25 313.693C1676.11 313.282 1675.97 312.873 1675.82 312.464C1675.7 312.124 1675.58 311.785 1675.46 311.446C1675.19 310.7 1674.9 309.958 1674.61 309.219C1674.32 308.48 1674.02 307.745 1673.71 307.013C1673.4 306.282 1673.08 305.554 1672.75 304.831C1672.42 304.108 1672.09 303.389 1671.74 302.674C1671.39 301.959 1671.04 301.248 1670.67 300.542C1670.31 299.835 1669.94 299.134 1669.56 298.437C1669.32 298.008 1669.08 297.581 1668.84 297.156C1668.69 296.89 1668.54 296.625 1668.39 296.36C1667.99 295.673 1667.58 294.991 1667.17 294.314C1666.76 293.637 1666.33 292.965 1665.9 292.298C1665.47 291.631 1665.03 290.97 1664.58 290.314C1664.13 289.659 1663.68 289.009 1663.21 288.364C1662.74 287.719 1662.27 287.081 1661.79 286.448C1661.31 285.816 1660.82 285.19 1660.33 284.569C1660.03 284.192 1659.72 283.818 1659.42 283.446C1659.22 283.205 1659.02 282.965 1658.82 282.726C1658.31 282.118 1657.79 281.516 1657.26 280.921C1656.73 280.326 1656.2 279.738 1655.66 279.156C1655.12 278.574 1654.57 277.999 1654.02 277.431C1653.47 276.862 1652.9 276.301 1652.33 275.747C1651.76 275.193 1651.19 274.646 1650.61 274.106C1650.02 273.566 1649.43 273.033 1648.84 272.508C1648.25 271.983 1647.64 271.465 1647.03 270.954C1646.42 270.444 1645.81 269.941 1645.19 269.446C1644.57 268.951 1643.94 268.464 1643.31 267.984C1642.68 267.505 1642.04 267.033 1641.39 266.57C1640.75 266.107 1640.1 265.651 1639.44 265.203C1638.79 264.756 1638.13 264.317 1637.46 263.886C1636.79 263.455 1636.12 263.032 1635.44 262.618ZM1603.71 313.621C1593.45 306.449 1581.25 305.412 1569.19 307.297C1558.12 311.251 1548.51 317.048 1543.31 328.123C1543.08 328.625 1542.86 329.133 1542.65 329.646C1542.44 330.159 1542.24 330.677 1542.06 331.2C1541.88 331.723 1541.71 332.25 1541.55 332.781C1541.4 333.312 1541.25 333.847 1541.12 334.385C1540.99 334.924 1540.88 335.465 1540.77 336.009C1540.67 336.553 1540.58 337.099 1540.5 337.648C1540.43 338.197 1540.37 338.747 1540.32 339.298C1540.27 339.85 1540.23 340.403 1540.21 340.956C1540.19 341.509 1540.18 342.063 1540.19 342.617C1540.19 342.882 1540.19 343.146 1540.2 343.41C1540.21 343.699 1540.22 343.988 1540.24 344.277C1540.27 344.83 1540.32 345.381 1540.38 345.932C1540.45 346.483 1540.52 347.031 1540.61 347.578C1540.7 348.125 1540.8 348.669 1540.91 349.211C1541.02 349.753 1541.15 350.292 1541.29 350.827C1541.44 351.362 1541.59 351.894 1541.76 352.422C1541.93 352.95 1542.11 353.473 1542.3 353.992C1545.92 363.955 1553.76 371.841 1563.31 376.271C1569.14 378.981 1580.45 381.215 1586.6 378.513C1586.78 378.435 1586.96 378.299 1587.12 378.195C1596.96 376.61 1606.49 370.893 1612.32 362.756C1617.7 355.251 1620.08 345.524 1618.51 336.396C1616.92 327.149 1611.36 318.964 1603.71 313.621Z" fill="#D09468"/>
<path d="M61.3125 105.696L127.885 105.755L127.814 361.432L258.211 361.464C258.73 385.494 258.275 409.635 258.279 433.677C253.962 436.072 82.0543 434.612 61.3459 434.598L61.3125 105.696Z" fill="#2C4657"/>
<path d="M1388.74 88.4272C1397.34 87.2132 1406.11 88.552 1413.48 93.3573C1418.79 96.8235 1424.27 103.252 1425.56 109.602C1429.01 126.578 1427.43 145.566 1427.44 162.827L1427.41 247.83L1427.44 350.542C1427.43 369.489 1428.27 388.907 1426.89 407.806C1426.41 414.372 1425.54 419.797 1421.78 425.39C1416.79 432.822 1409.22 437.018 1400.58 438.672C1395.21 440.258 1388.09 438.868 1383.1 436.639C1375.84 433.4 1369.33 426.882 1366.56 419.359C1361.53 405.693 1364.13 254.894 1364.14 229.467C1364.16 194.011 1362.44 156.202 1364.4 121.028C1364.71 115.487 1365.27 110.683 1367.67 105.589C1371.99 96.4005 1379.52 91.7111 1388.74 88.4272Z" fill="#D09468"/>
<path d="M305.57 105.562L370.158 105.62L370.181 435.912L305.593 435.963L305.57 105.562Z" fill="#2C4657"/>
<path d="M1137.07 313.159C1137.77 313.407 1138.4 313.706 1138.91 314.257C1144.31 320.161 1178.23 378.78 1182.29 387.567C1182.9 388.882 1183.05 390.219 1182.96 391.659L1136.47 391.702L1088.71 391.665C1095.96 386.721 1130.29 325.207 1137.07 313.159Z" fill="#2C4657"/>
</svg>
