<svg width="381" height="331" viewBox="0 0 381 331" fill="none" xmlns="http://www.w3.org/2000/svg">
<path d="M189.836 0.838196C201.032 0.838196 207.369 4.27247 213.026 11.8163C222.418 24.3405 236.613 49.713 246.134 65.7133L298.784 154.214L348.054 236.961C356.864 251.763 366.284 266.483 374.434 281.648C377.064 286.537 379.634 291.558 380.244 297.154C380.304 297.664 380.347 298.174 380.374 298.685C380.407 299.197 380.427 299.709 380.434 300.221C380.441 300.734 380.434 301.246 380.414 301.758C380.394 302.271 380.364 302.783 380.324 303.293C380.277 303.803 380.217 304.312 380.144 304.82C380.077 305.328 379.994 305.834 379.894 306.337C379.801 306.841 379.694 307.341 379.574 307.839C379.454 308.337 379.321 308.832 379.174 309.324C379.027 309.816 378.871 310.303 378.704 310.786C378.531 311.27 378.347 311.749 378.154 312.223C377.961 312.698 377.754 313.167 377.534 313.631C377.321 314.095 377.094 314.554 376.854 315.006C376.614 315.458 376.361 315.904 376.094 316.344C375.834 316.784 375.561 317.218 375.274 317.644C374.987 318.07 374.694 318.489 374.394 318.9C374.087 319.312 373.771 319.716 373.444 320.111C373.144 320.482 372.834 320.845 372.514 321.199C372.194 321.555 371.864 321.902 371.524 322.24C371.191 322.579 370.847 322.909 370.494 323.23C370.141 323.552 369.777 323.865 369.404 324.168C369.037 324.472 368.661 324.766 368.274 325.05C367.894 325.335 367.504 325.61 367.104 325.874C366.711 326.14 366.307 326.395 365.894 326.639C365.487 326.885 365.071 327.119 364.644 327.343C364.224 327.567 363.797 327.781 363.364 327.983C362.931 328.186 362.494 328.378 362.054 328.559C361.614 328.74 361.167 328.91 360.714 329.068C360.267 329.227 359.814 329.374 359.354 329.51C358.894 329.646 358.434 329.771 357.974 329.884C357.507 329.997 357.041 330.098 356.574 330.188C356.101 330.278 355.627 330.355 355.154 330.421C354.681 330.487 354.207 330.542 353.734 330.584C346.044 331.227 336.974 329.058 331.134 323.791C321.314 314.915 297.834 271.069 289.514 257.118L189.811 90.7889L83.044 271.238C73.964 286.659 65.4039 304.462 54.5839 318.581C51.4239 322.703 47.6899 325.823 42.9369 327.963C35.8969 331.133 27.151 331.777 19.876 328.992C19.4033 328.812 18.9356 328.621 18.4729 328.417C18.0103 328.215 17.5526 328 17.1 327.774C16.6473 327.549 16.2006 327.312 15.7599 327.064C15.3193 326.816 14.8853 326.558 14.4579 326.288C14.0299 326.019 13.6086 325.739 13.1939 325.449C12.7799 325.159 12.3732 324.859 11.9739 324.549C11.5746 324.239 11.1832 323.92 10.7999 323.59C10.4166 323.26 10.0416 322.921 9.6749 322.573C9.30824 322.225 8.95026 321.868 8.60093 321.502C8.2516 321.137 7.91158 320.763 7.58091 320.38C7.25024 319.998 6.92923 319.607 6.6179 319.209C6.30656 318.811 6.00524 318.405 5.71391 317.991C5.42257 317.578 5.14162 317.158 4.87095 316.73C4.60028 316.303 4.34025 315.869 4.09092 315.429C3.84159 314.989 3.6036 314.543 3.37693 314.091C3.1496 313.64 2.93359 313.183 2.72892 312.72C2.53692 312.286 2.35595 311.846 2.18595 311.402C2.01595 310.959 1.85727 310.511 1.70994 310.059C1.56261 309.608 1.42659 309.153 1.30192 308.694C1.17659 308.236 1.06329 307.775 0.961953 307.31C0.859953 306.846 0.769934 306.38 0.691934 305.911C0.613267 305.443 0.546588 304.972 0.491921 304.5C0.437255 304.028 0.394287 303.555 0.362954 303.081C0.332287 302.607 0.313281 302.133 0.305947 301.657C0.298614 301.182 0.302948 300.707 0.318948 300.232C0.335614 299.758 0.363909 299.283 0.403909 298.809C0.443909 298.336 0.495915 297.864 0.559915 297.393C0.623915 296.923 0.699261 296.454 0.785928 295.986C0.873261 295.519 0.972258 295.054 1.08292 294.592C1.19359 294.13 1.31562 293.671 1.44895 293.215C1.58229 292.759 1.72691 292.307 1.88291 291.858C2.03891 291.41 2.20626 290.965 2.38493 290.524C8.54893 274.98 19.3679 259.82 27.8979 245.438L78.1939 160.658L135.364 63.9313C145.444 46.7793 154.854 27.7063 166.784 11.8163C170.894 6.34229 179.305 0.838196 189.836 0.838196Z" fill="#2C4657"/>
<path d="M190.054 209.662L235.944 288.162L141.694 288.168L190.054 209.662Z" fill="#2C4657"/>
</svg>
