<svg width="381" height="331" viewBox="0 0 381 331" fill="none" xmlns="http://www.w3.org/2000/svg">
<path d="M189.836 0.261719C201.032 0.261719 207.369 3.696 213.026 11.2398C222.418 23.764 236.613 49.1365 246.134 65.1368L298.784 153.638L348.054 236.385C356.864 251.187 366.284 265.907 374.434 281.072C377.064 285.961 379.634 290.982 380.244 296.578C380.304 297.087 380.347 297.597 380.374 298.109C380.407 298.621 380.427 299.133 380.434 299.645C380.441 300.157 380.434 300.67 380.414 301.182C380.394 301.694 380.364 302.206 380.324 302.717C380.277 303.227 380.217 303.736 380.144 304.244C380.077 304.752 379.994 305.257 379.894 305.761C379.801 306.264 379.694 306.765 379.574 307.263C379.454 307.761 379.321 308.256 379.174 308.748C379.027 309.239 378.871 309.726 378.704 310.21C378.531 310.693 378.347 311.172 378.154 311.647C377.961 312.121 377.754 312.591 377.534 313.055C377.321 313.519 377.094 313.977 376.854 314.43C376.614 314.882 376.361 315.328 376.094 315.768C375.834 316.208 375.561 316.641 375.274 317.068C374.987 317.494 374.694 317.912 374.394 318.324C374.087 318.736 373.771 319.139 373.444 319.535C373.144 319.905 372.834 320.268 372.514 320.623C372.194 320.978 371.864 321.325 371.524 321.664C371.191 322.002 370.847 322.332 370.494 322.654C370.141 322.976 369.777 323.288 369.404 323.592C369.037 323.895 368.661 324.189 368.274 324.474C367.894 324.758 367.504 325.033 367.104 325.298C366.711 325.563 366.307 325.818 365.894 326.063C365.487 326.308 365.071 326.543 364.644 326.767C364.224 326.991 363.797 327.204 363.364 327.407C362.931 327.609 362.494 327.801 362.054 327.983C361.614 328.163 361.167 328.333 360.714 328.492C360.267 328.65 359.814 328.798 359.354 328.934C358.894 329.07 358.434 329.194 357.974 329.308C357.507 329.42 357.041 329.522 356.574 329.612C356.101 329.701 355.627 329.779 355.154 329.845C354.681 329.911 354.207 329.965 353.734 330.008C346.044 330.651 336.974 328.482 331.134 323.215C321.314 314.339 297.834 270.493 289.514 256.542L189.811 90.2124L83.044 270.662C73.964 286.083 65.4039 303.886 54.5839 318.005C51.4239 322.127 47.6899 325.247 42.9369 327.387C35.8969 330.557 27.151 331.201 19.876 328.416C19.4033 328.236 18.9356 328.044 18.4729 327.841C18.0103 327.638 17.5526 327.424 17.1 327.198C16.6473 326.972 16.2006 326.736 15.7599 326.488C15.3193 326.24 14.8853 325.981 14.4579 325.712C14.0299 325.442 13.6086 325.163 13.1939 324.873C12.7799 324.583 12.3732 324.283 11.9739 323.973C11.5746 323.663 11.1832 323.343 10.7999 323.014C10.4166 322.684 10.0416 322.345 9.6749 321.997C9.30824 321.649 8.95026 321.292 8.60093 320.926C8.2516 320.56 7.91158 320.186 7.58091 319.804C7.25024 319.421 6.92923 319.031 6.6179 318.633C6.30656 318.234 6.00524 317.828 5.71391 317.415C5.42257 317.001 5.14162 316.581 4.87095 316.154C4.60028 315.726 4.34025 315.293 4.09092 314.853C3.84159 314.413 3.6036 313.967 3.37693 313.515C3.1496 313.063 2.93359 312.606 2.72892 312.144C2.53692 311.709 2.35595 311.27 2.18595 310.826C2.01595 310.382 1.85727 309.935 1.70994 309.483C1.56261 309.031 1.42659 308.576 1.30192 308.118C1.17659 307.66 1.06329 307.198 0.961953 306.734C0.859953 306.27 0.769934 305.803 0.691934 305.335C0.613267 304.866 0.546588 304.396 0.491921 303.924C0.437255 303.452 0.394287 302.979 0.362954 302.505C0.332287 302.031 0.313281 301.556 0.305947 301.081C0.298614 300.605 0.302948 300.13 0.318948 299.656C0.335614 299.181 0.363909 298.707 0.403909 298.233C0.443909 297.759 0.495915 297.287 0.559915 296.817C0.623915 296.346 0.699261 295.877 0.785928 295.41C0.873261 294.942 0.972258 294.478 1.08292 294.016C1.19359 293.554 1.31562 293.095 1.44895 292.639C1.58229 292.183 1.72691 291.73 1.88291 291.282C2.03891 290.833 2.20626 290.388 2.38493 289.948C8.54893 274.404 19.3679 259.244 27.8979 244.862L78.1939 160.082L135.364 63.3548C145.444 46.2028 154.854 27.1298 166.784 11.2398C170.894 5.76582 179.305 0.261719 189.836 0.261719Z" fill="#EBDBC3"/>
<path d="M190.054 209.086L235.944 287.586L141.694 287.592L190.054 209.086Z" fill="#EBDBC3"/>
</svg>
