<svg width="46" height="63" xmlns="http://www.w3.org/2000/svg" version="1.1">

 <g>
  <title>Layer 1</title>
  <g id="svg_1">
   <path id="svg_2" d="m26.93386,40.7661c0.625,1.3359 1.875,2.2773 3.332,2.5039c0.23438,0.03906 0.47266,0.05859 0.70703,0.05859c1.1836,0.00391 2.3125,-0.48828 3.1133,-1.3594c0.35547,-0.38281 0.66406,-0.80078 0.92188,-1.2539c0.53125,-1.0586 1.4883,-2.4453 3.0273,-3.0664c0.63281,-0.25781 1.0781,-0.84375 1.1523,-1.5234c0.07422,-0.68359 -0.23047,-1.3516 -0.79297,-1.7422c-2.8594,-1.9531 -7.2578,-2.4531 -10.648,0.82813c-1.4688,1.4688 -1.7969,3.7266 -0.8125,5.5547l-0.00034,-0.00002z"/>
   <path id="svg_3" d="m21.25786,48.8981c-5.5664,1.9531 -11.605,0.58594 -14.352,-1.2227l0,5.1172l0.00391,0c0,0.875 0.34766,1.7109 0.96484,2.3281c0.61719,0.61719 1.4531,0.96484 2.3281,0.96484l25.781,0c1.8203,0 3.2969,-1.4727 3.3047,-3.293l0,-5.4883c-2.6875,-0.95703 -8.6875,-1.9961 -14.289,0.01953c-0.03907,-1.9453 -0.70703,-3.8281 -1.9062,-5.3594c-0.26953,-0.35938 -0.37891,-0.81641 -0.29297,-1.2578c0.32422,-1.8125 -0.26172,-3.668 -1.5664,-4.9648c-4.3633,-4.2305 -10.055,-3.3047 -13.5,-0.66406c-0.55859,0.42969 -0.83203,1.1367 -0.70703,1.8281c0.10547,0.67578 0.58594,1.2344 1.2422,1.4375c2.1602,0.6875 3.4883,2.5664 4.2461,4.0625l0,0.00391c0.3125,0.53906 0.67969,1.043 1.1016,1.5c1.7422,1.8203 4.5352,2.1367 6.6406,0.75781c0.03515,-0.01953 0.07812,-0.02735 0.11719,-0.02344c0.03515,0.01172 0.0664,0.03516 0.08203,0.07031c0.625,1.0117 0.90625,2.1992 0.80078,3.3867l0.00055,0.797z"/>
   <path id="svg_4" d="m8.24986,4.6211l0.57422,0c1.8086,0 3.5391,0.71484 4.8203,1.9961c1.2773,1.2773 1.9961,3.0117 1.9961,4.8164l0,2.1211c-0.00391,0.30078 0.11719,0.58984 0.33203,0.80078c0.21094,0.21484 0.5,0.33594 0.80078,0.33594l12.648,0c0.30078,0 0.58984,-0.12109 0.80469,-0.33594c0.21094,-0.21094 0.33203,-0.5 0.33203,-0.80078l0,-2.125c0,-1.8086 0.71484,-3.5391 1.9922,-4.8164c1.2773,-1.2773 3.0117,-1.9922 4.8164,-1.9922l0.58203,0c0.61328,0.00391 1.2031,-0.23828 1.6406,-0.67188c0.4375,-0.43359 0.67969,-1.0234 0.67969,-1.6406c0,-0.61328 -0.24219,-1.2031 -0.67969,-1.6367s-1.0273,-0.67578 -1.6406,-0.67188l-29.699,0c-0.61328,-0.00391 -1.2031,0.23828 -1.6406,0.66797c-0.43359,0.4375 -0.67578,1.0273 -0.67578,1.6406c0,0.61328 0.24219,1.2031 0.67969,1.6367c0.43359,0.43359 1.0234,0.67578 1.6367,0.67578l0.00021,0.00001z"/>
   <path id="svg_5" d="m37.71086,7.8441c-2.1367,0.19922 -3.7578,2.0078 -3.7305,4.1523l0,8.9062c-0.00391,1.4141 0.28906,2.8125 0.85938,4.1094c0.22656,0.51562 0.69141,0.88672 1.2422,0.99219c0.55469,0.10547 1.125,-0.07031 1.5234,-0.46875c0.49609,-0.5 0.63281,-1.2539 0.34766,-1.8984c-0.37891,-0.86328 -0.57031,-1.793 -0.56641,-2.7344l0,-5.0938c0.19922,0.03906 0.40234,0.05469 0.60938,0.05859c1.0898,0 2.1328,-0.44531 2.8867,-1.2266c0.75781,-0.78516 1.1641,-1.8438 1.125,-2.9336c-0.03906,-1.0898 -0.51953,-2.1133 -1.3281,-2.8438c-0.8125,-0.72656 -1.8828,-1.0938 -2.9688,-1.0195l0.00009,0.00017z"/>
   <path id="svg_6" d="m39.79286,28.5311l-0.00391,0.00391c-0.66406,0.66406 -0.66797,1.7383 -0.0039,2.4023l1.0078,1.0117l0.0039,0c0.67578,0.67578 1.2031,1.4844 1.5469,2.375c0.25,0.65625 0.88281,1.0938 1.5859,1.0977l0.00391,0c0.5625,-0.00391 1.0859,-0.28125 1.4023,-0.74609c0.32031,-0.46484 0.38672,-1.0547 0.18359,-1.5781c-0.51172,-1.332 -1.3008,-2.543 -2.3086,-3.5508l-1.0156,-1.0156c-0.66406,-0.66406 -1.7383,-0.66406 -2.4023,0l0.00001,-0.00002z"/>
   <path id="svg_7" d="m44.49586,39.0861c-0.94141,0 -1.6992,0.76172 -1.6992,1.6992l0,12c0,3.7617 -3.0508,6.8086 -6.8125,6.8086l-25.777,0c-3.7617,0 -6.8086,-3.0469 -6.8086,-6.8047l0,-16.02c-0.00391,-1.8086 0.71875,-3.543 2,-4.8203l3.8203,-3.832l0,0.00391c1.9258,-1.9102 3.0039,-4.5117 2.9961,-7.2188l0,-9.0508c0,-1.625 -0.97656,-3.0898 -2.4766,-3.7109c-1.5039,-0.625 -3.2305,-0.28125 -4.3789,0.86719c-1.1484,1.1484 -1.4922,2.8789 -0.87109,4.3789s2.0859,2.4805 3.7109,2.4805c0.20703,-0.00391 0.41016,-0.01954 0.60938,-0.0586l0,5.0938c0.00781,1.8047 -0.71094,3.5391 -1.9922,4.8125l-3.8281,3.832l-0.00391,0c-1.918,1.9141 -2.9922,4.5117 -2.9844,7.2227l0,16.02c0.00782,5.6367 4.5742,10.203 10.211,10.211l25.773,0c5.6406,0 10.211,-4.5703 10.211,-10.211l0,-12.004c0,-0.9375 -0.76172,-1.6992 -1.6992,-1.6992l0.00002,0z"/>
   <path id="svg_8" d="m31.18386,28.2071c0,3.668 -5.5,3.668 -5.5,0c0,-3.6641 5.5,-3.6641 5.5,0"/>
   <path id="svg_9" d="m23.09786,22.3751c0,5.0547 -7.582,5.0547 -7.582,0s7.582,-5.0547 7.582,0"/>
  </g>
 </g>
</svg>