<svg width="2000" height="513" viewBox="0 0 2000 513" fill="none" xmlns="http://www.w3.org/2000/svg">
<path fill-rule="evenodd" clip-rule="evenodd" d="M438.542 106.184L533.985 106.24C539.401 106.24 544.999 106.103 550.69 105.963C570.442 105.478 591.304 104.965 609.493 110.102C610.282 110.321 611.069 110.549 611.852 110.787C612.635 111.026 613.416 111.274 614.193 111.531C614.97 111.788 615.745 112.056 616.516 112.333C617.287 112.61 618.054 112.896 618.817 113.192C619.58 113.488 620.34 113.793 621.097 114.108C621.853 114.423 622.605 114.747 623.353 115.08C624.101 115.413 624.845 115.756 625.584 116.108C626.323 116.46 627.058 116.821 627.789 117.192C628.52 117.562 629.245 117.941 629.966 118.329C630.687 118.718 631.404 119.115 632.115 119.521C632.826 119.927 633.532 120.342 634.233 120.765C634.934 121.189 635.63 121.621 636.32 122.062C637.01 122.503 637.695 122.952 638.374 123.41C639.053 123.868 639.727 124.334 640.394 124.809C641.061 125.284 641.723 125.766 642.379 126.257C643.034 126.748 643.684 127.248 644.327 127.755C644.97 128.262 645.606 128.777 646.237 129.3C646.867 129.823 647.491 130.353 648.108 130.892C648.725 131.431 649.336 131.977 649.939 132.53C650.543 133.084 651.14 133.645 651.729 134.214C652.319 134.782 652.902 135.358 653.477 135.941C654.052 136.524 654.62 137.114 655.181 137.711C655.742 138.308 656.296 138.912 656.841 139.523C657.387 140.134 657.925 140.751 658.456 141.375C658.986 142 659.508 142.63 660.023 143.267C660.538 143.904 661.045 144.548 661.544 145.198C662.043 145.847 662.533 146.503 663.016 147.165C663.499 147.827 663.973 148.495 664.439 149.169C664.905 149.843 665.362 150.522 665.811 151.207C666.26 151.892 666.701 152.583 667.133 153.279C667.565 153.975 667.988 154.676 668.403 155.383C668.818 156.09 669.223 156.801 669.62 157.518C682.119 179.993 686.491 206.807 679.351 231.731C674.935 247.146 664.382 267.3 649.862 275.371C657.503 278.144 664.164 285.521 668.686 292.062C669.061 292.609 669.43 293.16 669.792 293.715C670.154 294.271 670.509 294.831 670.857 295.395C671.205 295.96 671.546 296.528 671.879 297.101C672.213 297.674 672.54 298.25 672.86 298.831C673.179 299.412 673.492 299.997 673.797 300.586C674.102 301.174 674.4 301.766 674.691 302.362C674.982 302.958 675.265 303.558 675.541 304.161C675.817 304.764 676.085 305.37 676.346 305.98C676.607 306.589 676.86 307.202 677.106 307.818C677.352 308.433 677.59 309.052 677.82 309.674C678.051 310.296 678.274 310.921 678.489 311.548C678.704 312.175 678.911 312.804 679.111 313.437C679.31 314.069 679.502 314.704 679.686 315.341C679.87 315.978 680.046 316.618 680.214 317.259C680.382 317.9 680.542 318.544 680.694 319.189C680.846 319.834 680.99 320.482 681.127 321.131C681.263 321.78 681.391 322.43 681.511 323.082C681.632 323.735 681.744 324.388 681.848 325.043C681.952 325.698 682.048 326.354 682.135 327.011C682.223 327.668 682.303 328.327 682.375 328.986C682.446 329.645 682.51 330.305 682.565 330.966C682.62 331.627 682.667 332.288 682.706 332.95C682.745 333.612 682.776 334.274 682.799 334.937C682.822 335.6 682.836 336.263 682.842 336.926C682.848 337.589 682.846 338.252 682.836 338.915C682.826 339.578 682.808 340.241 682.781 340.904C682.755 341.567 682.72 342.229 682.677 342.89C682.634 343.552 682.583 344.213 682.524 344.874C682.465 345.534 682.398 346.194 682.323 346.853C682.247 347.512 682.163 348.169 682.072 348.826C681.981 349.483 681.881 350.138 681.773 350.792C681.665 351.447 681.549 352.1 681.425 352.751C679.581 362.856 673.893 382.794 665.049 388.899C664.762 393.632 657.669 400.576 653.515 404.643C653.026 405.122 652.577 405.561 652.185 405.952C640.058 418.053 624.476 427.589 607.836 431.923C590.439 436.455 570.216 435.916 551.153 435.409C545.283 435.253 539.523 435.099 533.989 435.098L438.495 435.018L438.542 106.184ZM502.616 304.438L554.531 304.277C557.277 304.27 560.091 304.206 562.94 304.142C572.901 303.916 583.287 303.681 592.669 305.821C601.795 307.903 610.532 312.958 615.517 321.074C619.92 328.243 620.823 337.408 618.892 345.508C617.422 351.672 614.225 357.82 608.729 361.227C608.531 362.276 607.529 363.284 606.794 364.007C602.609 368.124 596.169 369.804 590.558 370.741C581.847 372.195 572.751 372.063 563.804 371.933C561.241 371.896 558.69 371.859 556.163 371.859L502.599 371.806C502.735 349.35 502.741 326.894 502.616 304.438ZM524.255 170.97C515.675 171.156 508.077 171.32 502.673 171.288L502.683 236.161L557.831 236.308C560.46 236.312 563.118 236.356 565.79 236.401C575.047 236.555 584.475 236.713 593.47 235.196C598.288 234.384 604.103 232.78 607.657 229.176C608.295 228.529 609.06 227.592 609.318 226.701C613.932 224.089 616.833 219.114 618.251 214.105C620.638 205.675 619.724 195.904 615.328 188.277C610.744 180.322 602.246 175.202 593.543 172.939C581.232 169.736 548.744 170.44 524.255 170.97Z" fill="#EBDBC3"/>
<path fill-rule="evenodd" clip-rule="evenodd" d="M782.768 106.491C769.403 106.205 755.864 105.915 742.883 107.126C744.453 114.593 744.141 123.486 743.849 131.844C743.737 135.034 743.628 138.147 743.628 141.073L743.62 209.935L743.618 357.16C743.616 365.188 743.74 373.866 743.866 382.769C744.128 401.184 744.403 420.56 743.618 437.139C750.991 437.136 758.152 437.161 765.243 437.187C779.265 437.237 793.015 437.286 807.592 437.114C808.563 426.172 807.282 339.509 807.282 339.509C807.259 339.455 807.234 339.402 807.209 339.348C807.194 339.317 807.179 339.285 807.165 339.253C812.716 342.586 876.852 425.224 876.852 425.224L915.476 368.624L883.155 327.811C883.155 327.811 894.517 325.758 911.728 319.354C937.082 307.092 946.408 298.69 958.761 279.437C975.178 253.852 981.922 222.502 975.334 192.603C975.138 191.713 974.932 190.827 974.716 189.943C974.499 189.058 974.271 188.176 974.033 187.298C973.795 186.419 973.546 185.543 973.287 184.671C973.027 183.797 972.757 182.928 972.477 182.062C972.196 181.196 971.905 180.333 971.604 179.474C971.302 178.615 970.99 177.76 970.668 176.908C970.345 176.056 970.012 175.209 969.67 174.366C969.327 173.522 968.974 172.683 968.611 171.848C968.247 171.013 967.874 170.183 967.491 169.357C967.107 168.531 966.714 167.71 966.311 166.894C965.907 166.078 965.494 165.267 965.071 164.461C964.648 163.655 964.216 162.854 963.773 162.058C963.33 161.262 962.878 160.472 962.417 159.688C961.955 158.903 961.483 158.124 961.003 157.351C960.522 156.577 960.032 155.81 959.533 155.049C959.034 154.287 958.526 153.532 958.008 152.784C957.49 152.034 956.964 151.292 956.428 150.556C955.892 149.82 955.348 149.09 954.795 148.367C954.241 147.644 953.68 146.928 953.109 146.219C952.538 145.509 951.959 144.807 951.371 144.113C950.783 143.417 950.188 142.729 949.583 142.049C948.978 141.368 948.365 140.695 947.745 140.029C947.124 139.363 946.496 138.705 945.859 138.055C945.222 137.404 944.577 136.761 943.925 136.127C943.273 135.492 942.613 134.865 941.945 134.246C941.278 133.627 940.602 133.017 939.92 132.415C939.237 131.812 938.548 131.218 937.851 130.633C937.154 130.047 936.45 129.47 935.74 128.902C935.028 128.333 934.311 127.773 933.587 127.222C932.862 126.671 932.131 126.129 931.393 125.596C930.656 125.062 929.912 124.538 929.162 124.023C928.411 123.507 927.654 123.001 926.892 122.505C925.574 121.648 924.236 120.825 922.878 120.036C921.519 119.247 920.141 118.493 918.745 117.775C917.347 117.056 915.933 116.373 914.501 115.727C913.069 115.079 911.622 114.469 910.159 113.896C908.696 113.322 907.22 112.787 905.73 112.289C904.24 111.791 902.739 111.331 901.226 110.909C899.713 110.487 898.189 110.104 896.657 109.76C895.123 109.415 893.583 109.11 892.035 108.844C872.756 105.427 845.666 105.965 821.873 106.437C814.141 106.59 806.757 106.737 800.103 106.739C794.398 106.74 788.6 106.616 782.768 106.491ZM878.45 171.226C866.509 168.309 820.592 167.896 808.735 170.025C810.769 178.708 810.256 263.473 808.177 266.728C808.123 266.812 808.067 266.893 808.012 266.975C807.976 267.027 807.94 267.079 807.905 267.132L842.98 267.233C843.865 267.234 844.763 267.237 845.67 267.24C863.843 267.297 886.075 267.367 900.125 254.914L902.913 252.532C908.833 247.6 913.173 237.717 915.101 230.073C918.139 218.028 916.569 204.583 910.116 193.897C903.146 182.355 891.457 174.403 878.45 171.226Z" fill="#EBDBC3"/>
<path fill-rule="evenodd" clip-rule="evenodd" d="M1763.29 87.7403C1762.54 87.785 1761.8 87.8549 1761.06 87.95C1752.24 90.6062 1744.36 94.672 1739.78 103.109C1736.96 108.311 1736 114.705 1735.61 120.544C1735.05 128.938 1735.19 137.497 1735.33 145.998C1735.38 149.468 1735.44 152.929 1735.45 156.365L1735.56 222.947L1735.44 296.509C1735.44 300.307 1735.4 304.123 1735.35 307.945C1735.25 317.91 1735.14 327.922 1735.71 337.806C1735.96 342.503 1736.48 347.168 1737.29 351.801C1738.1 356.434 1739.18 361.002 1740.53 365.505C1748.2 390.634 1765.16 413.318 1788.56 425.769C1814.3 439.467 1841.75 443.511 1869.77 434.913C1876.95 432.707 1899.01 424.424 1902.69 417.751C1902.82 417.53 1902.84 417.484 1902.9 417.326C1902.91 417.298 1902.93 417.267 1902.94 417.231C1920.49 407.709 1933.63 383.077 1939.1 364.638C1946.07 341.17 1940.78 318.538 1929.26 297.43C1928.88 296.735 1928.49 296.044 1928.1 295.359C1927.71 294.673 1927.3 293.992 1926.89 293.317C1926.48 292.641 1926.05 291.971 1925.62 291.306C1925.19 290.641 1924.76 289.981 1924.31 289.326C1923.86 288.672 1923.41 288.023 1922.95 287.38C1922.49 286.737 1922.02 286.099 1921.54 285.468C1921.07 284.837 1920.58 284.211 1920.09 283.592C1919.6 282.972 1919.1 282.359 1918.59 281.752C1918.08 281.145 1917.57 280.544 1917.04 279.95C1916.52 279.355 1915.99 278.767 1915.45 278.186C1914.92 277.605 1914.37 277.03 1913.82 276.463C1913.27 275.895 1912.71 275.334 1912.14 274.78C1911.58 274.226 1911.01 273.679 1910.43 273.14C1909.85 272.6 1909.26 272.067 1908.67 271.542C1908.08 271.017 1907.48 270.499 1906.88 269.989C1906.27 269.478 1905.66 268.975 1905.04 268.48C1904.43 267.985 1903.8 267.497 1903.17 267.017C1902.54 266.538 1901.91 266.066 1901.27 265.601C1900.63 265.137 1899.98 264.681 1899.33 264.233C1898.68 263.785 1898.02 263.345 1897.35 262.913C1896.69 262.481 1896.02 262.057 1895.35 261.642C1894.68 261.227 1894 260.821 1893.31 260.422C1892.63 260.023 1891.94 259.633 1891.25 259.252C1890.56 258.871 1889.86 258.498 1889.15 258.134C1888.45 257.77 1887.74 257.415 1887.03 257.068C1886.32 256.721 1885.61 256.383 1884.89 256.054C1884.17 255.725 1883.44 255.406 1882.71 255.095C1881.98 254.784 1881.25 254.482 1880.52 254.189C1879.79 253.896 1879.05 253.613 1878.3 253.338C1877.56 253.063 1876.82 252.798 1876.07 252.542C1875.32 252.286 1874.57 252.039 1873.81 251.801C1873.06 251.564 1872.3 251.336 1871.54 251.117C1853.04 245.686 1832.22 245.703 1813.91 251.872C1810.93 252.877 1807.99 254.102 1805.06 255.327C1801.54 256.795 1798.03 258.261 1794.45 259.343C1796.7 254.275 1797.09 137.322 1796.37 121.946C1796.14 116.963 1795.75 110.993 1793.99 106.33C1791.35 99.3017 1785.34 93.4851 1778.55 90.4732C1777.87 90.173 1777.18 89.8962 1776.47 89.6429C1775.77 89.3896 1775.06 89.1604 1774.35 88.9551C1773.63 88.7499 1772.91 88.5692 1772.18 88.413C1771.45 88.2567 1770.71 88.1254 1769.98 88.0189C1769.24 87.9124 1768.5 87.8311 1767.75 87.7749C1767.01 87.7186 1766.27 87.6876 1765.52 87.6818C1764.77 87.6761 1764.03 87.6956 1763.29 87.7403ZM1862.75 312.874C1852.62 306.544 1841.6 306.061 1830.11 307.797C1818.96 312.123 1809.35 317.822 1804.3 329.297C1804.08 329.814 1803.87 330.336 1803.67 330.863C1803.47 331.39 1803.29 331.922 1803.12 332.459C1802.95 332.995 1802.79 333.535 1802.64 334.079C1802.5 334.624 1802.37 335.171 1802.25 335.722C1802.13 336.273 1802.03 336.826 1801.94 337.381C1801.85 337.937 1801.77 338.495 1801.71 339.054C1801.65 339.614 1801.6 340.175 1801.56 340.736C1801.53 341.298 1801.51 341.861 1801.5 342.424C1801.49 342.987 1801.5 343.549 1801.52 344.112C1801.54 344.675 1801.57 345.237 1801.62 345.798C1801.67 346.359 1801.74 346.918 1801.81 347.476C1801.89 348.034 1801.98 348.59 1802.08 349.143C1802.19 349.696 1802.3 350.247 1802.43 350.795C1802.56 351.342 1802.71 351.886 1802.87 352.427C1803.02 352.967 1803.19 353.503 1803.38 354.036C1803.56 354.568 1803.76 355.095 1803.97 355.617C1807.88 365.419 1816.08 373.239 1825.73 377.35C1831.98 380.013 1842.77 381.625 1849.22 378.932C1849.38 378.865 1849.56 378.756 1849.71 378.662C1849.74 378.646 1849.77 378.63 1849.79 378.615C1859.81 376.445 1869.17 370.707 1874.79 361.977C1875.1 361.504 1875.39 361.023 1875.67 360.535C1875.96 360.047 1876.23 359.553 1876.48 359.052C1876.74 358.551 1876.99 358.043 1877.22 357.53C1877.45 357.017 1877.67 356.498 1877.88 355.973C1878.09 355.449 1878.28 354.92 1878.46 354.386C1878.64 353.852 1878.81 353.314 1878.96 352.772C1879.11 352.229 1879.25 351.684 1879.38 351.135C1879.51 350.586 1879.62 350.034 1879.72 349.479C1879.82 348.924 1879.91 348.367 1879.98 347.808C1880.05 347.249 1880.11 346.688 1880.15 346.126C1880.2 345.565 1880.23 345.002 1880.25 344.438C1880.26 343.875 1880.26 343.311 1880.25 342.748C1880.24 342.184 1880.22 341.621 1880.18 341.059C1880.14 340.497 1880.09 339.936 1880.02 339.376C1879.95 338.816 1879.87 338.258 1879.78 337.703C1879.68 337.147 1879.57 336.594 1879.45 336.044C1879.31 335.449 1879.16 334.857 1878.99 334.27C1878.82 333.683 1878.64 333.1 1878.44 332.521C1878.25 331.942 1878.04 331.369 1877.81 330.801C1877.58 330.233 1877.34 329.671 1877.09 329.114C1876.84 328.558 1876.58 328.008 1876.3 327.465C1876.02 326.922 1875.73 326.387 1875.42 325.858C1875.11 325.329 1874.79 324.809 1874.46 324.296C1874.13 323.783 1873.78 323.279 1873.42 322.783C1873.07 322.288 1872.7 321.801 1872.31 321.324C1871.93 320.847 1871.54 320.379 1871.14 319.921C1870.73 319.463 1870.32 319.015 1869.89 318.578C1869.46 318.141 1869.03 317.714 1868.58 317.298C1868.13 316.883 1867.67 316.478 1867.2 316.085C1866.73 315.692 1866.26 315.311 1865.77 314.942C1865.28 314.573 1864.79 314.215 1864.29 313.87C1863.78 313.525 1863.27 313.193 1862.75 312.874Z" fill="#979C94"/>
<path d="M1128.27 105.537C1128.68 105.474 1129.08 105.418 1129.49 105.371C1138.12 104.357 1147.3 105.087 1154.35 110.681C1158.13 113.685 1161.02 118.107 1163.64 122.141C1173.66 137.606 1182.72 153.863 1192.15 169.71L1244.8 258.211L1294.07 340.958C1302.88 355.76 1312.3 370.48 1320.45 385.645C1323.08 390.534 1325.65 395.555 1326.26 401.151C1326.32 401.66 1326.36 402.171 1326.39 402.682C1326.42 403.194 1326.44 403.706 1326.45 404.218C1326.46 404.731 1326.45 405.243 1326.43 405.755C1326.41 406.268 1326.38 406.779 1326.34 407.29C1326.29 407.8 1326.23 408.309 1326.16 408.817C1326.09 409.325 1326.01 409.831 1325.91 410.334C1325.82 410.837 1325.71 411.338 1325.59 411.836C1325.47 412.334 1325.34 412.829 1325.19 413.321C1325.04 413.812 1324.89 414.3 1324.72 414.783C1324.55 415.266 1324.36 415.745 1324.17 416.22C1323.98 416.695 1323.77 417.164 1323.55 417.628C1323.34 418.092 1323.11 418.55 1322.87 419.003C1322.63 419.455 1322.38 419.901 1322.11 420.341C1321.85 420.781 1321.58 421.214 1321.29 421.641C1321 422.067 1320.71 422.486 1320.41 422.897C1320.1 423.309 1319.79 423.713 1319.46 424.108C1319.16 424.479 1318.85 424.841 1318.53 425.196C1318.21 425.551 1317.88 425.898 1317.54 426.237C1317.21 426.576 1316.86 426.906 1316.51 427.227C1316.16 427.549 1315.79 427.862 1315.42 428.165C1315.05 428.468 1314.68 428.762 1314.29 429.047C1313.91 429.332 1313.52 429.606 1313.12 429.871C1312.73 430.136 1312.32 430.391 1311.91 430.636C1311.5 430.881 1311.09 431.116 1310.66 431.34C1310.24 431.564 1309.81 431.777 1309.38 431.98C1308.95 432.183 1308.51 432.375 1308.07 432.556C1307.63 432.737 1307.18 432.906 1306.73 433.065C1306.28 433.224 1305.83 433.371 1305.37 433.507C1304.91 433.643 1304.45 433.768 1303.99 433.881C1303.52 433.994 1303.06 434.095 1302.59 434.185C1302.12 434.274 1301.64 434.352 1301.17 434.418C1300.7 434.484 1300.22 434.538 1299.75 434.581C1292.06 435.224 1282.99 433.055 1277.15 427.788C1267.33 418.912 1243.85 375.066 1235.53 361.115L1162.51 238.606C1157.73 230.466 1144.53 204.595 1138.27 199.442C1138.21 199.396 1138.16 199.352 1138.1 199.307C1137.82 197.681 1137.53 197.169 1136.49 195.89C1134.19 196.829 1132.85 199.399 1131.56 201.405C1120.38 218.823 1110.6 237.462 1100.04 255.307L1029.06 375.235C1019.98 390.656 1011.42 408.459 1000.6 422.578C997.44 426.7 993.706 429.82 988.953 431.96C981.913 435.13 973.167 435.774 965.892 432.989C965.419 432.809 964.952 432.617 964.489 432.414C964.026 432.211 963.569 431.997 963.116 431.771C962.663 431.546 962.217 431.309 961.776 431.061C961.335 430.813 960.901 430.554 960.474 430.285C960.046 430.016 959.625 429.736 959.21 429.446C958.796 429.156 958.389 428.856 957.99 428.546C957.591 428.236 957.199 427.916 956.816 427.587C956.433 427.257 956.058 426.918 955.691 426.57C955.324 426.222 954.966 425.865 954.617 425.499C954.268 425.134 953.928 424.76 953.597 424.377C953.266 423.994 952.945 423.604 952.634 423.206C952.323 422.807 952.021 422.401 951.73 421.988C951.439 421.575 951.158 421.154 950.887 420.727C950.616 420.3 950.356 419.866 950.107 419.426C949.858 418.986 949.62 418.54 949.393 418.088C949.166 417.637 948.95 417.18 948.745 416.717C948.553 416.282 948.372 415.843 948.202 415.399C948.032 414.956 947.873 414.508 947.726 414.056C947.579 413.605 947.443 413.15 947.318 412.691C947.193 412.233 947.079 411.772 946.978 411.307C946.876 410.843 946.786 410.377 946.708 409.908C946.629 409.439 946.563 408.969 946.508 408.497C946.453 408.025 946.41 407.552 946.379 407.078C946.348 406.604 946.329 406.129 946.322 405.654C946.315 405.179 946.319 404.704 946.335 404.229C946.352 403.754 946.38 403.28 946.42 402.806C946.46 402.333 946.512 401.861 946.576 401.39C946.64 400.919 946.715 400.45 946.802 399.983C946.889 399.516 946.988 399.051 947.099 398.589C947.21 398.127 947.332 397.668 947.465 397.212C947.598 396.756 947.743 396.304 947.899 395.855C948.055 395.406 948.222 394.962 948.401 394.521C954.565 378.977 965.384 363.817 973.914 349.435L1024.21 264.655L1081.38 167.928C1091.46 150.776 1100.87 131.703 1112.8 115.813C1116.91 110.339 1122.2 108.161 1128.27 105.537Z" fill="#EBDBC3"/>
<path fill-rule="evenodd" clip-rule="evenodd" d="M1635.44 263.118C1613.24 249.243 1589.05 245.837 1563.4 248.194C1533.54 254.74 1508.21 268.904 1491.39 295.198C1478.61 315.198 1474.94 337.527 1480.08 360.642C1480.26 361.439 1480.45 362.234 1480.65 363.027C1480.85 363.82 1481.06 364.611 1481.28 365.398C1481.5 366.185 1481.73 366.97 1481.97 367.752C1482.21 368.534 1482.46 369.313 1482.72 370.089C1482.98 370.865 1483.25 371.638 1483.52 372.407C1483.8 373.176 1484.09 373.941 1484.38 374.704C1484.68 375.466 1484.99 376.224 1485.3 376.979C1485.61 377.734 1485.94 378.484 1486.27 379.231C1486.6 379.978 1486.95 380.72 1487.3 381.459C1487.65 382.197 1488.01 382.931 1488.38 383.66C1488.75 384.389 1489.12 385.114 1489.51 385.835C1489.9 386.555 1490.3 387.27 1490.7 387.98C1491.11 388.691 1491.52 389.396 1491.94 390.096C1492.37 390.796 1492.8 391.491 1493.24 392.181C1493.67 392.87 1494.12 393.554 1494.58 394.233C1495.03 394.912 1495.5 395.585 1495.97 396.252C1496.44 396.919 1496.92 397.581 1497.41 398.236C1497.9 398.891 1498.4 399.54 1498.9 400.183C1499.41 400.826 1499.92 401.463 1500.44 402.094C1500.96 402.725 1501.49 403.349 1502.03 403.966C1502.56 404.583 1503.11 405.194 1503.66 405.798C1504.21 406.403 1504.76 407 1505.33 407.59C1505.9 408.181 1506.47 408.764 1507.05 409.34C1507.63 409.917 1508.22 410.486 1508.81 411.048C1509.4 411.61 1510 412.164 1510.61 412.711C1511.22 413.258 1511.83 413.798 1512.45 414.33C1513.08 414.862 1513.71 415.386 1514.34 415.903C1514.97 416.42 1515.61 416.929 1516.26 417.43C1516.9 417.931 1517.55 418.423 1518.21 418.908C1518.87 419.393 1519.53 419.869 1520.2 420.338C1520.87 420.807 1521.55 421.267 1522.23 421.719C1522.91 422.17 1523.6 422.614 1524.29 423.049C1544.02 435.549 1571.26 443.097 1594.47 437.839C1594.47 437.839 1605.75 435.297 1622.57 429.347V437.839C1622.57 437.839 1671.27 437.299 1679.84 437.333C1679.84 437.333 1682.1 355.106 1681.48 342.967C1681.16 336.356 1680.28 329.82 1678.85 323.359C1678.67 322.585 1678.48 321.813 1678.28 321.044C1678.09 320.275 1677.88 319.508 1677.66 318.744C1677.45 317.98 1677.22 317.219 1676.98 316.46C1676.75 315.701 1676.5 314.946 1676.25 314.193C1675.99 313.441 1675.73 312.692 1675.46 311.946C1675.19 311.2 1674.9 310.458 1674.61 309.719C1674.32 308.98 1674.02 308.245 1673.71 307.513C1673.4 306.782 1673.08 306.054 1672.75 305.331C1672.42 304.608 1672.09 303.889 1671.74 303.174C1671.39 302.459 1671.04 301.748 1670.67 301.042C1670.31 300.335 1669.94 299.634 1669.56 298.937C1669.17 298.24 1668.78 297.547 1668.39 296.86C1667.99 296.173 1667.58 295.491 1667.17 294.814C1666.76 294.137 1666.33 293.465 1665.9 292.798C1665.47 292.131 1665.03 291.47 1664.58 290.814C1664.13 290.159 1663.68 289.509 1663.21 288.864C1662.74 288.219 1662.27 287.581 1661.79 286.948C1661.31 286.316 1660.82 285.69 1660.33 285.069C1659.83 284.448 1659.33 283.834 1658.82 283.226C1658.31 282.618 1657.79 282.016 1657.26 281.421C1656.73 280.826 1656.2 280.238 1655.66 279.656C1655.12 279.074 1654.57 278.499 1654.02 277.931C1653.47 277.362 1652.9 276.801 1652.33 276.247C1651.76 275.693 1651.19 275.146 1650.61 274.606C1650.02 274.066 1649.43 273.533 1648.84 273.008C1648.25 272.483 1647.64 271.965 1647.03 271.454C1646.42 270.944 1645.81 270.441 1645.19 269.946C1644.57 269.451 1643.94 268.964 1643.31 268.484C1642.68 268.005 1642.04 267.533 1641.39 267.07C1640.75 266.607 1640.1 266.151 1639.44 265.703C1638.79 265.256 1638.13 264.817 1637.46 264.386C1636.79 263.955 1636.12 263.532 1635.44 263.118ZM1603.71 314.121C1593.45 306.949 1581.25 305.912 1569.19 307.797C1558.12 311.751 1548.51 317.548 1543.31 328.623C1543.08 329.125 1542.86 329.633 1542.65 330.146C1542.44 330.659 1542.24 331.177 1542.06 331.7C1541.88 332.223 1541.71 332.75 1541.55 333.281C1541.4 333.812 1541.25 334.347 1541.12 334.885C1540.99 335.424 1540.88 335.965 1540.77 336.509C1540.67 337.053 1540.58 337.599 1540.5 338.148C1540.43 338.697 1540.37 339.247 1540.32 339.798C1540.27 340.35 1540.23 340.903 1540.21 341.456C1540.19 342.009 1540.18 342.563 1540.19 343.117C1540.19 343.671 1540.21 344.224 1540.24 344.777C1540.27 345.33 1540.32 345.881 1540.38 346.432C1540.45 346.983 1540.52 347.531 1540.61 348.078C1540.7 348.625 1540.8 349.169 1540.91 349.711C1541.02 350.253 1541.15 350.792 1541.29 351.327C1541.44 351.862 1541.59 352.394 1541.76 352.922C1541.93 353.45 1542.11 353.973 1542.3 354.492C1545.92 364.455 1553.76 372.341 1563.31 376.771C1569.14 379.481 1580.45 381.715 1586.6 379.013C1586.74 378.954 1586.87 378.861 1587 378.775C1587.04 378.747 1587.08 378.72 1587.12 378.695C1596.96 377.11 1606.49 371.393 1612.32 363.256C1617.7 355.751 1620.08 346.024 1618.51 336.896C1616.92 327.649 1611.36 319.464 1603.71 314.121Z" fill="#979C94"/>
<path d="M61.3125 106.196L127.885 106.255L127.814 361.932L258.211 361.964C258.73 385.994 258.275 410.135 258.279 434.177C253.962 436.572 82.0543 435.112 61.3459 435.098L61.3125 106.196Z" fill="#EBDBC3"/>
<path d="M1388.74 88.9272C1397.34 87.7132 1406.11 89.052 1413.48 93.8573C1418.79 97.3235 1424.27 103.752 1425.56 110.102C1429.01 127.078 1427.43 146.066 1427.44 163.327L1427.41 248.33L1427.44 351.042C1427.43 369.989 1428.27 389.407 1426.89 408.306C1426.41 414.872 1425.54 420.297 1421.78 425.89C1416.79 433.322 1409.22 437.518 1400.58 439.172C1395.21 440.758 1388.09 439.368 1383.1 437.139C1375.84 433.9 1369.33 427.382 1366.56 419.859C1361.53 406.193 1364.13 255.394 1364.14 229.967C1364.16 194.511 1362.44 156.702 1364.4 121.528C1364.71 115.987 1365.27 111.183 1367.67 106.089C1371.99 96.9005 1379.52 92.2111 1388.74 88.9272Z" fill="#979C94"/>
<path d="M305.57 106.062L370.158 106.12L370.181 436.412L305.593 436.463L305.57 106.062Z" fill="#EBDBC3"/>
<path d="M1137.07 313.659C1137.77 313.907 1138.4 314.206 1138.91 314.757C1144.31 320.661 1178.23 379.28 1182.29 388.067C1182.9 389.382 1183.05 390.719 1182.96 392.159L1136.47 392.202L1088.71 392.165C1095.96 387.221 1130.29 325.707 1137.07 313.659Z" fill="#EBDBC3"/>
</svg>
