<svg width="205" height="193" viewBox="0 0 205 193" fill="none" xmlns="http://www.w3.org/2000/svg">
<path fill-rule="evenodd" clip-rule="evenodd" d="M158.44 15.6181C136.24 1.74305 112.05 -1.66296 86.4002 0.69404C56.5402 7.24004 31.2102 21.404 14.3902 47.698C1.61017 67.698 -2.05989 90.027 3.08011 113.142C3.26011 113.939 3.45018 114.734 3.65018 115.527C3.85018 116.32 4.06019 117.111 4.28019 117.898C4.50019 118.685 4.73013 119.47 4.97013 120.252C5.21013 121.034 5.46013 121.813 5.72013 122.589C5.98013 123.365 6.24684 124.138 6.52018 124.907C6.80018 125.676 7.08683 126.441 7.38016 127.204C7.68016 127.966 7.98687 128.724 8.3002 129.479C8.61354 130.234 8.93684 130.984 9.27018 131.731C9.60351 132.478 9.94687 133.22 10.3002 133.959C10.6469 134.697 11.0068 135.431 11.3802 136.16C11.7468 136.889 12.1235 137.614 12.5102 138.335C12.9035 139.055 13.3001 139.77 13.7001 140.48C14.1068 141.191 14.5201 141.896 14.9401 142.596C15.3668 143.296 15.8001 143.991 16.2401 144.681C16.6735 145.37 17.1201 146.054 17.5801 146.733C18.0334 147.412 18.4968 148.085 18.9701 148.752C19.4435 149.419 19.9235 150.081 20.4102 150.736C20.9035 151.391 21.4002 152.04 21.9002 152.683C22.4068 153.326 22.9201 153.963 23.4401 154.594C23.9601 155.225 24.4902 155.849 25.0302 156.466C25.5635 157.083 26.1069 157.694 26.6602 158.298C27.2069 158.903 27.7634 159.5 28.3301 160.09C28.8968 160.681 29.4702 161.264 30.0502 161.84C30.6302 162.417 31.2169 162.986 31.8102 163.548C32.4035 164.11 33.0035 164.664 33.6101 165.211C34.2168 165.758 34.8301 166.298 35.4501 166.83C36.0768 167.362 36.7068 167.886 37.3401 168.403C37.9735 168.92 38.6135 169.429 39.2602 169.93C39.9002 170.431 40.5501 170.923 41.2101 171.408C41.8701 171.893 42.5334 172.369 43.2001 172.838C43.8734 173.307 44.5501 173.767 45.2301 174.219C45.9101 174.67 46.5969 175.114 47.2902 175.549C67.0202 188.049 94.2601 195.597 117.47 190.339C117.47 190.339 128.749 187.797 145.57 181.847V190.339C145.57 190.339 194.27 189.799 202.84 189.833C202.84 189.833 205.1 107.606 204.48 95.467C204.16 88.8564 203.283 82.3204 201.85 75.859C201.67 75.0851 201.48 74.3134 201.28 73.544C201.087 72.7747 200.88 72.008 200.66 71.244C200.447 70.48 200.22 69.7187 199.98 68.96C199.747 68.2014 199.503 67.4457 199.25 66.693C198.99 65.941 198.727 65.1921 198.46 64.4461C198.187 63.7001 197.903 62.9577 197.61 62.219C197.317 61.4804 197.017 60.745 196.71 60.013C196.397 59.2817 196.077 58.5544 195.75 57.831C195.423 57.1077 195.087 56.3887 194.74 55.6741C194.393 54.9587 194.037 54.248 193.67 53.542C193.31 52.8354 192.94 52.1337 192.56 51.4371C192.174 50.7397 191.784 50.0474 191.39 49.36C190.99 48.6727 190.584 47.9907 190.17 47.314C189.757 46.6367 189.334 45.9647 188.9 45.298C188.467 44.6314 188.027 43.97 187.58 43.314C187.133 42.6587 186.677 42.0087 186.21 41.3641C185.743 40.7194 185.27 40.0807 184.79 39.448C184.31 38.816 183.823 38.1897 183.33 37.569C182.83 36.9484 182.327 36.3341 181.82 35.7261C181.307 35.1181 180.787 34.5164 180.26 33.921C179.734 33.3264 179.2 32.738 178.66 32.156C178.12 31.574 177.574 30.999 177.02 30.431C176.467 29.8624 175.903 29.3011 175.33 28.747C174.763 28.193 174.19 27.646 173.61 27.106C173.023 26.566 172.433 26.0334 171.84 25.508C171.247 24.9827 170.644 24.4647 170.03 23.9541C169.424 23.444 168.81 22.9414 168.19 22.4461C167.57 21.9514 166.944 21.464 166.31 20.984C165.677 20.5047 165.037 20.0334 164.39 19.57C163.75 19.1067 163.1 18.651 162.44 18.203C161.787 17.7557 161.127 17.3167 160.46 16.886C159.793 16.4547 159.12 16.0321 158.44 15.6181ZM126.71 66.621C116.45 59.449 104.25 58.412 92.1901 60.297C81.1201 64.251 71.5103 70.048 66.3103 81.123C66.0769 81.625 65.8569 82.1327 65.6502 82.646C65.4369 83.1593 65.2403 83.6773 65.0603 84.2C64.8803 84.7227 64.7103 85.2497 64.5503 85.781C64.3969 86.3123 64.2535 86.847 64.1202 87.385C63.9935 87.9237 63.8769 88.465 63.7702 89.009C63.6702 89.553 63.5802 90.0993 63.5002 90.648C63.4269 91.1967 63.3668 91.7467 63.3201 92.298C63.2668 92.85 63.2302 93.4027 63.2102 93.956C63.1902 94.5093 63.1835 95.063 63.1901 95.617C63.1901 96.171 63.2069 96.7243 63.2402 97.277C63.2735 97.8297 63.3202 98.3813 63.3802 98.932C63.4469 99.4827 63.5235 100.031 63.6102 100.578C63.6969 101.125 63.7969 101.669 63.9102 102.211C64.0236 102.753 64.1502 103.292 64.2902 103.827C64.4369 104.362 64.5935 104.894 64.7602 105.422C64.9269 105.95 65.1069 106.473 65.3002 106.992C68.9202 116.955 76.7603 124.841 86.3103 129.271C92.1403 131.981 103.45 134.215 109.6 131.513C109.737 131.454 109.873 131.361 110.001 131.275C110.042 131.247 110.082 131.22 110.12 131.195C119.96 129.61 129.49 123.893 135.32 115.756C140.7 108.251 143.08 98.524 141.51 89.396C139.92 80.149 134.36 71.964 126.71 66.621Z" fill="#D09468"/>
</svg>
