<svg width="208" height="352" viewBox="0 0 208 352" fill="none" xmlns="http://www.w3.org/2000/svg">
<path fill-rule="evenodd" clip-rule="evenodd" d="M28.29 0.240265C27.5433 0.284999 26.8 0.354893 26.06 0.449959C17.24 3.10616 9.36 7.17196 4.78 15.609C1.96 20.811 0.999952 27.205 0.609952 33.044C0.0489441 41.4378 0.188887 49.9965 0.327896 58.4981C0.384637 61.9683 0.441222 65.4289 0.449917 68.865L0.560025 135.447L0.439908 209.009C0.437135 212.807 0.395937 216.622 0.354663 220.445C0.247056 230.41 0.138937 240.422 0.709927 250.306C0.956594 255.003 1.48334 259.668 2.29001 264.301C3.09667 268.934 4.17666 273.502 5.53 278.005C13.2 303.134 30.16 325.818 53.56 338.269C79.3 351.967 106.75 356.011 134.77 347.413C141.95 345.207 164.01 336.924 167.69 330.251C167.818 330.03 167.837 329.984 167.901 329.826C167.912 329.798 167.925 329.767 167.94 329.731C185.49 320.209 198.63 295.577 204.1 277.138C211.07 253.67 205.78 231.038 194.26 209.93C193.88 209.235 193.493 208.544 193.1 207.859C192.707 207.173 192.303 206.492 191.89 205.817C191.477 205.141 191.053 204.471 190.62 203.806C190.193 203.141 189.757 202.481 189.31 201.826C188.863 201.172 188.41 200.523 187.95 199.88C187.49 199.237 187.02 198.599 186.54 197.968C186.067 197.337 185.583 196.711 185.09 196.092C184.597 195.472 184.097 194.859 183.59 194.252C183.083 193.645 182.567 193.044 182.04 192.45C181.52 191.855 180.99 191.267 180.45 190.686C179.917 190.105 179.373 189.53 178.82 188.963C178.267 188.395 177.707 187.834 177.14 187.28C176.58 186.726 176.01 186.179 175.43 185.64C174.85 185.1 174.263 184.567 173.67 184.042C173.077 183.517 172.48 182.999 171.88 182.489C171.273 181.978 170.66 181.475 170.04 180.98C169.427 180.485 168.803 179.997 168.17 179.517C167.543 179.038 166.91 178.566 166.27 178.101C165.63 177.637 164.983 177.181 164.33 176.733C163.677 176.285 163.017 175.845 162.35 175.413C161.69 174.981 161.023 174.557 160.35 174.142C159.677 173.727 158.997 173.321 158.31 172.922C157.63 172.523 156.943 172.133 156.25 171.752C155.557 171.371 154.857 170.998 154.15 170.634C153.45 170.27 152.743 169.915 152.03 169.568C151.323 169.221 150.61 168.883 149.89 168.554C149.17 168.225 148.443 167.906 147.71 167.595C146.983 167.284 146.253 166.982 145.52 166.689C144.787 166.396 144.047 166.113 143.3 165.838C142.56 165.563 141.817 165.298 141.07 165.042C140.323 164.786 139.57 164.539 138.81 164.301C138.057 164.064 137.3 163.836 136.54 163.617C118.04 158.186 97.22 158.203 78.91 164.372C75.9312 165.377 72.9937 166.602 70.0591 167.827C66.5408 169.295 63.0266 170.761 59.4499 171.843C61.6999 166.775 62.09 49.822 61.37 34.446C61.14 29.463 60.75 23.493 58.99 18.83C56.35 11.8017 50.34 5.98506 43.55 2.97316C42.87 2.67296 42.1766 2.39619 41.4699 2.14286C40.7699 1.88959 40.0633 1.66033 39.3499 1.45506C38.6299 1.24986 37.9067 1.06916 37.18 0.912964C36.4467 0.756698 35.7133 0.625327 34.9799 0.51886C34.2399 0.412394 33.4966 0.331065 32.75 0.274865C32.01 0.218598 31.2667 0.187563 30.52 0.181763C29.7733 0.17603 29.03 0.195532 28.29 0.240265ZM127.75 225.374C117.62 219.044 106.6 218.561 95.11 220.297C83.96 224.623 74.3501 230.322 69.3001 241.797C69.0801 242.314 68.8701 242.836 68.6701 243.363C68.4701 243.89 68.2867 244.422 68.12 244.959C67.9467 245.495 67.7867 246.035 67.6401 246.579C67.5001 247.124 67.3701 247.671 67.2501 248.222C67.1301 248.773 67.0267 249.326 66.94 249.881C66.8467 250.437 66.77 250.995 66.71 251.554C66.65 252.114 66.6001 252.675 66.5601 253.236C66.5268 253.798 66.5067 254.361 66.5001 254.924C66.4934 255.487 66.5001 256.049 66.5201 256.612C66.5401 257.175 66.5734 257.737 66.62 258.298C66.6734 258.859 66.7368 259.418 66.8101 259.976C66.8901 260.534 66.98 261.09 67.08 261.643C67.1867 262.196 67.3034 262.747 67.4301 263.295C67.5634 263.842 67.7101 264.386 67.87 264.927C68.0234 265.467 68.1934 266.003 68.3801 266.536C68.5601 267.068 68.7567 267.595 68.97 268.117C72.88 277.919 81.08 285.739 90.73 289.85C96.98 292.513 107.77 294.125 114.22 291.432C114.382 291.365 114.559 291.256 114.713 291.162C114.74 291.146 114.765 291.13 114.79 291.115C124.81 288.945 134.17 283.207 139.79 274.477C140.097 274.004 140.39 273.523 140.67 273.035C140.957 272.547 141.227 272.053 141.48 271.552C141.74 271.051 141.987 270.543 142.22 270.03C142.453 269.517 142.673 268.998 142.88 268.473C143.087 267.949 143.28 267.42 143.46 266.886C143.64 266.352 143.807 265.814 143.96 265.272C144.113 264.729 144.253 264.184 144.38 263.635C144.507 263.086 144.62 262.534 144.72 261.979C144.82 261.424 144.907 260.867 144.98 260.308C145.053 259.749 145.11 259.188 145.15 258.626C145.197 258.065 145.23 257.502 145.25 256.938C145.263 256.375 145.263 255.811 145.25 255.248C145.243 254.684 145.22 254.121 145.18 253.559C145.14 252.997 145.087 252.436 145.02 251.876C144.953 251.316 144.873 250.758 144.78 250.203C144.68 249.647 144.57 249.094 144.45 248.544C144.31 247.949 144.157 247.357 143.99 246.77C143.823 246.183 143.64 245.6 143.44 245.021C143.247 244.442 143.037 243.869 142.81 243.301C142.583 242.733 142.343 242.171 142.09 241.614C141.843 241.058 141.58 240.508 141.3 239.965C141.02 239.422 140.727 238.887 140.42 238.358C140.113 237.829 139.793 237.309 139.46 236.796C139.127 236.283 138.78 235.779 138.42 235.283C138.067 234.788 137.697 234.301 137.31 233.824C136.93 233.347 136.54 232.879 136.14 232.421C135.733 231.963 135.317 231.515 134.89 231.078C134.463 230.641 134.027 230.214 133.58 229.798C133.133 229.383 132.673 228.978 132.2 228.585C131.733 228.192 131.257 227.811 130.77 227.442C130.283 227.073 129.79 226.715 129.29 226.37C128.783 226.025 128.27 225.693 127.75 225.374Z" fill="#D09468"/>
</svg>
