<svg width="236" height="332" viewBox="0 0 236 332" fill="none" xmlns="http://www.w3.org/2000/svg">
<path fill-rule="evenodd" clip-rule="evenodd" d="M40.7679 0.99107C27.4032 0.704857 13.8643 0.414914 0.882812 1.62562C2.45261 9.0932 2.14143 17.9855 1.84893 26.3438C1.73728 29.5342 1.62836 32.6468 1.62781 35.5726L1.61981 104.435L1.6178 251.66C1.61649 259.688 1.73977 268.366 1.86623 277.269C2.12782 295.684 2.40307 315.06 1.61774 331.639C8.99057 331.636 16.1516 331.661 23.2429 331.687C37.2653 331.737 51.0153 331.786 65.5918 331.614C66.5628 320.672 65.2818 234.009 65.2818 234.009C65.2586 233.955 65.2338 233.902 65.209 233.848C65.1942 233.817 65.1793 233.785 65.1648 233.753C70.7158 237.086 134.852 319.724 134.852 319.724L173.476 263.124L141.155 222.311C141.155 222.311 152.517 220.258 169.728 213.854C195.082 201.592 204.408 193.19 216.761 173.937C233.178 148.352 239.922 117.002 233.334 87.1026C233.138 86.2133 232.932 85.3266 232.716 84.4426C232.499 83.558 232.271 82.6763 232.033 81.7976C231.795 80.9189 231.546 80.0433 231.287 79.1706C231.027 78.2973 230.757 77.4276 230.477 76.5616C230.196 75.6956 229.905 74.8329 229.604 73.9736C229.302 73.1149 228.99 72.2596 228.668 71.4076C228.345 70.5563 228.012 69.709 227.67 68.8656C227.327 68.0223 226.974 67.183 226.611 66.3476C226.247 65.513 225.874 64.6826 225.491 63.8566C225.107 63.0313 224.714 62.2103 224.311 61.3936C223.907 60.5776 223.494 59.7666 223.071 58.9606C222.648 58.1546 222.216 57.3536 221.773 56.5576C221.33 55.7623 220.878 54.9723 220.417 54.1876C219.955 53.403 219.483 52.624 219.003 51.8506C218.522 51.0773 218.032 50.31 217.533 49.5486C217.034 48.7873 216.526 48.0323 216.008 47.2836C215.49 46.5343 214.964 45.7916 214.428 45.0556C213.892 44.3196 213.348 43.59 212.795 42.8666C212.241 42.144 211.68 41.428 211.109 40.7186C210.538 40.0093 209.959 39.3073 209.371 38.6126C208.783 37.9173 208.188 37.2293 207.583 36.5486C206.978 35.868 206.365 35.1946 205.745 34.5286C205.124 33.8633 204.496 33.2053 203.859 32.5546C203.222 31.904 202.577 31.2613 201.925 30.6266C201.273 29.992 200.613 29.3649 199.945 28.7456C199.278 28.1269 198.602 27.5166 197.92 26.9146C197.237 26.312 196.548 25.718 195.851 25.1326C195.154 24.5466 194.45 23.9696 193.74 23.4016C193.028 22.833 192.311 22.273 191.587 21.7216C190.862 21.171 190.131 20.629 189.393 20.0956C188.656 19.5623 187.912 19.038 187.162 18.5226C186.411 18.0073 185.654 17.5013 184.892 17.0046C183.574 16.148 182.236 15.3249 180.878 14.5356C179.519 13.7469 178.141 12.9933 176.745 12.2746C175.347 11.556 173.933 10.8733 172.501 10.2266C171.069 9.57928 169.622 8.96895 168.159 8.39562C166.696 7.82228 165.22 7.28662 163.73 6.78862C162.24 6.29062 160.739 5.83062 159.226 5.40862C157.713 4.98662 156.189 4.60362 154.657 4.25962C153.123 3.91496 151.583 3.60962 150.035 3.34362C130.756 -0.0731047 103.666 0.464599 79.8728 0.936876C72.141 1.09034 64.7573 1.2369 58.1028 1.23862C52.3982 1.24014 46.5996 1.11596 40.7679 0.99107ZM136.45 65.726C124.509 62.809 78.5918 62.396 66.7348 64.525C68.7688 73.208 68.2558 157.973 66.1768 161.228C66.1232 161.311 66.0674 161.393 66.0116 161.475C65.9758 161.527 65.94 161.579 65.9049 161.632L100.98 161.733C101.865 161.734 102.763 161.737 103.67 161.74C121.843 161.797 144.075 161.867 158.125 149.414L160.913 147.032C166.833 142.099 171.173 132.217 173.101 124.573C176.139 112.528 174.569 99.083 168.116 88.397C161.146 76.855 149.457 68.903 136.45 65.726Z" fill="#2C4657"/>
</svg>
