<svg width="245" height="331" viewBox="0 0 245 331" fill="none" xmlns="http://www.w3.org/2000/svg">
<path fill-rule="evenodd" clip-rule="evenodd" d="M0.542114 0.683993L95.9851 0.739992C101.401 0.74044 106.999 0.602864 112.69 0.463024C132.442 -0.0223539 153.304 -0.535011 171.493 4.60199C172.282 4.82066 173.069 5.049 173.852 5.287C174.635 5.52566 175.416 5.77366 176.193 6.03099C176.97 6.28833 177.745 6.55566 178.516 6.83299C179.287 7.10966 180.054 7.396 180.817 7.692C181.58 7.988 182.34 8.29333 183.097 8.608C183.853 8.92266 184.605 9.24666 185.353 9.58C186.101 9.91333 186.845 10.256 187.584 10.608C188.323 10.96 189.058 11.3213 189.789 11.692C190.52 12.062 191.245 12.441 191.966 12.829C192.687 13.2177 193.404 13.615 194.115 14.021C194.826 14.427 195.532 14.8417 196.233 15.265C196.934 15.689 197.63 16.1213 198.32 16.562C199.01 17.0027 199.695 17.452 200.374 17.91C201.053 18.368 201.727 18.8343 202.394 19.309C203.061 19.7837 203.723 20.2663 204.379 20.757C205.034 21.2483 205.684 21.7477 206.327 22.255C206.97 22.7617 207.606 23.2767 208.237 23.8C208.867 24.3227 209.491 24.8533 210.108 25.392C210.725 25.9307 211.336 26.4767 211.939 27.03C212.543 27.584 213.14 28.1453 213.729 28.714C214.319 29.282 214.902 29.8577 215.477 30.441C216.052 31.0237 216.62 31.6137 217.181 32.211C217.742 32.8077 218.296 33.4117 218.841 34.023C219.387 34.6337 219.925 35.251 220.456 35.875C220.986 36.4997 221.508 37.1303 222.023 37.767C222.538 38.4043 223.045 39.048 223.544 39.698C224.043 40.3473 224.533 41.003 225.016 41.665C225.499 42.327 225.973 42.995 226.439 43.669C226.905 44.343 227.362 45.0223 227.811 45.707C228.26 46.3923 228.701 47.083 229.133 47.779C229.565 48.475 229.988 49.1763 230.403 49.883C230.818 50.5897 231.223 51.3013 231.62 52.018C244.119 74.493 248.491 101.307 241.351 126.231C236.935 141.646 226.382 161.8 211.862 169.871C219.503 172.644 226.164 180.021 230.686 186.562C231.061 187.109 231.43 187.66 231.792 188.215C232.154 188.771 232.509 189.331 232.857 189.895C233.205 190.46 233.546 191.028 233.879 191.601C234.213 192.174 234.54 192.75 234.86 193.331C235.179 193.912 235.492 194.497 235.797 195.086C236.102 195.674 236.4 196.266 236.691 196.862C236.982 197.458 237.265 198.058 237.541 198.661C237.817 199.264 238.085 199.87 238.346 200.48C238.607 201.089 238.86 201.702 239.106 202.318C239.352 202.933 239.59 203.552 239.82 204.174C240.051 204.796 240.274 205.421 240.489 206.048C240.704 206.675 240.911 207.304 241.111 207.937C241.31 208.569 241.502 209.204 241.686 209.841C241.87 210.478 242.046 211.118 242.214 211.759C242.382 212.4 242.542 213.044 242.694 213.689C242.846 214.334 242.99 214.982 243.127 215.631C243.263 216.28 243.391 216.93 243.511 217.582C243.632 218.235 243.744 218.888 243.848 219.543C243.952 220.198 244.048 220.854 244.135 221.511C244.223 222.168 244.303 222.827 244.375 223.486C244.446 224.145 244.51 224.805 244.565 225.466C244.62 226.127 244.667 226.788 244.706 227.45C244.745 228.112 244.776 228.774 244.799 229.437C244.822 230.1 244.836 230.763 244.842 231.426C244.848 232.089 244.846 232.752 244.836 233.415C244.826 234.078 244.808 234.741 244.781 235.404C244.755 236.067 244.72 236.729 244.677 237.39C244.634 238.052 244.583 238.713 244.524 239.374C244.465 240.034 244.398 240.694 244.323 241.353C244.247 242.012 244.163 242.669 244.072 243.326C243.981 243.983 243.881 244.638 243.773 245.292C243.665 245.947 243.549 246.6 243.425 247.251C241.581 257.356 235.893 277.294 227.049 283.399C226.762 288.132 219.669 295.076 215.515 299.143C215.026 299.622 214.577 300.061 214.185 300.452C202.058 312.553 186.476 322.089 169.836 326.423C152.439 330.955 132.216 330.416 113.153 329.909C107.283 329.753 101.523 329.599 95.9891 329.598L0.495117 329.518L0.542114 0.683993ZM64.6161 198.938L116.531 198.777C119.277 198.77 122.091 198.706 124.94 198.642C134.901 198.416 145.287 198.181 154.669 200.321C163.795 202.403 172.532 207.458 177.517 215.574C181.92 222.743 182.823 231.908 180.892 240.008C179.422 246.172 176.225 252.32 170.729 255.727C170.531 256.776 169.529 257.784 168.794 258.507C164.609 262.624 158.169 264.304 152.558 265.241C143.847 266.695 134.751 266.563 125.804 266.433C123.241 266.396 120.69 266.359 118.163 266.359L64.5991 266.306C64.7351 243.85 64.7408 221.394 64.6161 198.938ZM86.2549 65.4699C77.6752 65.6556 70.0774 65.8202 64.6731 65.788L64.6831 130.661L119.831 130.808C122.46 130.812 125.118 130.856 127.79 130.901C137.047 131.055 146.475 131.213 155.47 129.696C160.288 128.884 166.103 127.28 169.657 123.676C170.295 123.029 171.06 122.092 171.318 121.201C175.932 118.589 178.833 113.614 180.251 108.605C182.638 100.175 181.724 90.404 177.328 82.777C172.744 74.822 164.246 69.702 155.543 67.439C143.232 64.2361 110.744 64.9396 86.2549 65.4699Z" fill="#2C4657"/>
</svg>
