<svg width="852" height="589" viewBox="0 0 852 589" fill="none" xmlns="http://www.w3.org/2000/svg">
<path d="M400.819 209.797C403.903 213.093 406.551 216.74 409.261 220.343C413.705 226.059 418.778 231.79 422.441 238.029C427.128 234.772 431.421 227.36 434.938 222.743C438.101 218.612 441.174 214.352 444.682 210.505C446.871 211.259 460.964 230.638 462.97 234.028C470.212 242.898 476.804 252.306 483.654 261.479C487.893 267.155 492.496 272.618 496.607 278.379L513.13 299.94L517.129 304.927C511.879 311.893 506.574 318.817 501.212 325.698L498.521 329.095C496.432 332.002 494.405 334.995 492.146 337.771C490.949 339.335 489.454 341.846 488.003 343.102L484.146 348.775C480.854 353.066 477.547 358.431 473.751 362.205C457.057 384.557 440.155 406.75 423.043 428.785L372.123 362.087C370.119 360.021 368.421 357.281 366.689 354.961C364.236 352.377 362.304 349.295 360.29 346.364C358.595 344.527 357.145 342.096 355.661 340.06C352.236 336.539 349.345 331.999 346.404 328.038C342.713 324.642 339.411 319.016 336.324 314.952C333.362 311.633 330.902 307.901 328.361 304.257C332.609 299.994 336.24 294.477 339.956 289.712C350.515 275.245 361.312 260.958 372.347 246.852C373.436 244.571 375.962 242.126 377.582 240.118C385.721 230.442 393.04 219.8 400.819 209.797Z" fill="#1F1F1F"/>
<path fill-rule="evenodd" clip-rule="evenodd" d="M562.165 302.679C546.029 324.959 528.928 346.691 511.858 368.383C504.459 377.786 497.066 387.182 489.76 396.611C481.933 406.711 474.202 416.913 466.467 427.119C452.27 445.851 438.061 464.598 423.234 482.764C416.548 473.71 409.571 464.86 402.596 456.011C398.266 450.517 393.936 445.025 389.676 439.484L283.043 301.996C283.098 301.926 283.153 301.857 283.208 301.787L274.63 290.931C268.508 299.169 262.167 307.242 255.826 315.315L255.824 315.317L255.822 315.318L255.821 315.32L255.82 315.322C252.44 319.624 249.06 323.927 245.714 328.254C243.918 330.577 242.122 332.904 240.324 335.234C227.673 351.631 214.94 368.134 201.442 383.778C200.822 382.982 200.162 382.047 199.475 381.072L199.475 381.072C197.886 378.817 196.149 376.354 194.409 374.928C192.178 370.908 189.055 367.064 186.027 363.338L186.026 363.336L186.025 363.336C184.923 361.978 183.833 360.637 182.803 359.308C177.415 352.382 172.177 345.342 167.091 338.19L166.584 338.861C165.74 337.76 164.903 336.641 164.064 335.52L164.064 335.52C162.14 332.948 160.206 330.361 158.143 327.945L137.658 354.668C137.364 355.044 137.07 355.419 136.775 355.794C133.062 360.529 129.354 365.257 125.93 370.209C123.525 373.365 121.055 376.515 118.575 379.677L118.575 379.678L118.574 379.678C112.146 387.876 105.657 396.15 100.085 404.789C94.9043 410.275 90.2278 416.683 85.6317 422.982C83.6074 425.755 81.5988 428.508 79.5694 431.151C76.3958 435.285 73.1653 439.394 69.932 443.506C63.1473 452.134 56.3507 460.778 50.0434 469.705C47.9092 471.986 46.0627 474.476 44.2078 476.978C44.0228 477.228 43.8378 477.478 43.6524 477.727L41.2184 481.106C40.7552 481.644 40.2742 482.194 39.7837 482.756L39.7801 482.76L39.7799 482.76C37.0111 485.929 33.9385 489.446 32.0304 492.971C24.6886 500.983 16.7708 511.816 9.36906 521.943C6.25361 526.205 3.22958 530.343 0.378418 534.092C21.6686 534.4 42.9902 534.324 64.3024 534.248H64.3079C74.1561 534.213 84.0022 534.178 93.8424 534.181L277.648 534.158C294.979 512.097 312.157 489.917 329.182 467.618C339.762 481.835 350.87 495.742 361.964 509.633L361.966 509.636C367.674 516.781 373.377 523.923 379.003 531.099C384.635 538.282 390.186 545.538 395.738 552.794L395.739 552.796C404.934 564.814 414.131 576.836 423.7 588.535C429.891 581.052 435.776 573.267 441.651 565.497L441.651 565.496C444.171 562.163 446.689 558.832 449.228 555.529L489.028 503.971C491.372 500.915 493.698 497.821 496.029 494.721L496.033 494.715L496.033 494.714C502.841 485.658 509.692 476.544 517.161 468.148C527.55 482.764 538.794 496.924 550.015 511.056L550.016 511.057C556.12 518.745 562.218 526.424 568.168 534.165L851.523 534.148C851.52 534.088 851.519 534.028 851.518 533.967C851.516 533.847 851.513 533.726 851.493 533.608C851.253 532.382 767.503 422.567 763.293 420.05C763.291 419.992 763.29 419.926 763.289 419.856V419.855C763.284 419.577 763.277 419.223 763.213 418.98C762.403 415.851 702.43 338.377 697.73 333.036C697.012 332.22 696.111 331.58 695.202 330.994C695.201 331.046 695.199 331.094 695.198 331.14C695.192 331.427 695.187 331.618 695.04 331.948C693.768 334.82 688.886 341.195 686.025 342.517C686.011 342.478 685.995 342.438 685.978 342.397C683.415 348.338 669.517 366.203 665.755 369.784C665.752 369.808 665.749 369.832 665.747 369.856C665.745 369.872 665.743 369.889 665.741 369.905C665.738 369.943 665.734 369.981 665.729 370.018C665.723 370.064 665.715 370.109 665.703 370.154C664.829 373.458 655.14 384.436 652.153 386.179C651.932 383.183 603.128 324.302 581.887 298.675L581.88 298.666L581.876 298.662L581.849 298.63L581.806 298.578L581.757 298.518C577.596 293.499 574.51 289.776 573.081 288.03C571.221 290.773 569.146 293.403 567.08 296.023L567.078 296.026C566.292 297.022 565.507 298.017 564.736 299.015L563.398 300.97L563.399 300.972C563.38 300.998 563.361 301.025 563.342 301.052L562.198 302.722L562.165 302.679Z" fill="black"/>
<path d="M423.688 0.514893C432.192 10.7529 440.076 21.5079 448.206 32.0439C460.438 47.8959 472.79 63.7019 484.743 79.7629C492.404 89.7429 501.168 99.7299 507.881 110.329C523.114 129.9 538.228 149.563 553.223 169.317C560.653 178.576 567.943 187.944 575.093 197.421L663.361 312.247C667.228 317.312 684.808 338.486 686.298 342.517C685 347.296 669.727 367.003 665.755 370.784C665.738 370.907 665.735 371.033 665.703 371.154C664.829 374.458 655.14 385.436 652.153 387.179C651.888 383.587 581.783 299.658 573.081 289.03C570.513 292.817 567.534 296.391 564.736 300.015L562.198 303.722L556.924 296.862C550.562 291.066 543.861 279.923 538.283 272.812C516.628 245.206 495.587 217.088 474.259 189.226C456.414 167.923 441.43 143.977 423.273 122.991C411.384 137.233 400.568 152.608 389.202 167.289C383.458 174.708 372.874 186.538 368.504 194.246C368.354 194.114 368.202 193.984 368.054 193.85C362.793 189.063 361.083 181.29 353.975 175.879L353.873 173.669C352.787 172.763 352.835 172.883 351.408 173.008C349.084 174.557 346.344 177.1 345.959 180.053C345.816 181.146 346.184 182.29 346.562 183.297L345.855 183.5L344.486 181.8C343.255 182.066 343.018 182.204 342.27 183.261C340.309 186.033 341.161 187.804 337.71 189.872C334.065 192.056 333.512 195.859 330.961 198.84C329.18 200.921 326.441 202.514 324.433 204.505C324.44 204.785 324.45 205.065 324.454 205.345C324.464 206.151 324.397 206.543 323.915 207.216L322.24 208.462C318.003 208.097 319.21 203.207 316.582 200.36C314.836 199.938 314.961 201.43 313.109 201.882C304.273 197.454 307.038 192.915 302.188 187.89C301.148 187.916 300.287 187.995 299.33 187.5C299.152 187.408 298.993 187.283 298.825 187.175C297.717 184.015 293.921 181.068 291.417 178.833C291.072 178.139 290.171 177.615 289.561 177.131C292.015 173.204 295.409 169.35 298.366 165.786C305.968 154.418 315.238 143.644 323.593 132.779C338.764 113.093 353.826 93.3242 368.778 73.4729C386.028 48.4449 406.58 25.6259 423.688 0.514893Z" fill="#1F1F1F"/>
<path d="M323.915 207.216C324.397 206.543 324.464 206.151 324.454 205.345C324.45 205.065 324.44 204.785 324.433 204.505C326.441 202.514 329.18 200.921 330.961 198.84C333.512 195.859 334.065 192.056 337.71 189.872C341.161 187.804 340.309 186.033 342.27 183.261C343.018 182.204 343.255 182.066 344.486 181.8L345.855 183.5L346.562 183.297C346.184 182.29 345.816 181.146 345.959 180.053C346.344 177.1 349.084 174.557 351.408 173.008C352.835 172.883 352.787 172.763 353.873 173.669L353.975 175.879C361.083 181.29 362.793 189.063 368.054 193.85C368.202 193.984 368.354 194.114 368.504 194.246L366.687 195.85C365.522 198.667 358.267 208.842 355.836 210.656C343.214 228.845 328.918 246.133 315.418 263.685C305.01 277.218 295.259 291.304 284.753 304.742L274.63 291.931C265.243 304.563 255.34 316.806 245.714 329.254C231.276 347.924 216.858 366.911 201.442 384.778C199.387 382.142 196.901 377.97 194.409 375.928C191.364 370.443 186.659 365.285 182.803 360.308C177.332 353.275 172.017 346.126 166.857 338.861L236.955 246.102C254.376 223.068 271.565 199.712 289.561 177.131C290.171 177.615 291.072 178.139 291.417 178.833C293.921 181.068 297.717 184.015 298.825 187.175C298.993 187.283 299.152 187.408 299.33 187.5C300.287 187.995 301.148 187.916 302.188 187.89C307.038 192.915 304.273 197.454 313.109 201.882C314.961 201.43 314.836 199.938 316.582 200.36C319.21 203.207 318.003 208.097 322.24 208.462L323.915 207.216Z" fill="#1F1F1F"/>
</svg>
