<svg width="65" height="352" viewBox="0 0 65 352" fill="none" xmlns="http://www.w3.org/2000/svg">
<path d="M25.74 0.427171C34.34 -0.786829 43.11 0.55197 50.48 5.35727C55.79 8.82347 61.2701 15.252 62.5601 21.602C66.0101 38.578 64.43 57.566 64.44 74.827L64.4101 159.83L64.44 262.542C64.43 281.489 65.27 300.907 63.89 319.806C63.41 326.372 62.5401 331.797 58.7801 337.39C53.7901 344.822 46.22 349.018 37.58 350.672C32.21 352.258 25.09 350.868 20.1 348.639C12.84 345.4 6.33009 338.882 3.56009 331.359C-1.46991 317.693 1.13005 166.894 1.14005 141.467C1.16005 106.011 -0.559945 68.202 1.40006 33.028C1.71006 27.487 2.27007 22.683 4.67007 17.589C8.99008 8.40047 16.52 3.71107 25.74 0.427171Z" fill="#D09468"/>
</svg>
