<svg width="381" height="331" viewBox="0 0 381 331" fill="none" xmlns="http://www.w3.org/2000/svg">
<path d="M182.27 1.037C182.677 0.973668 183.083 0.918335 183.49 0.871001C192.12 -0.142999 201.3 0.586999 208.35 6.181C212.13 9.185 215.02 13.607 217.64 17.641C227.66 33.106 236.72 49.363 246.15 65.21L298.8 153.711L348.07 236.458C356.88 251.26 366.3 265.98 374.45 281.145C377.08 286.034 379.65 291.055 380.26 296.651C380.32 297.16 380.363 297.671 380.39 298.182C380.423 298.694 380.443 299.206 380.45 299.718C380.457 300.231 380.45 300.743 380.43 301.255C380.41 301.768 380.38 302.279 380.34 302.79C380.293 303.3 380.233 303.809 380.16 304.317C380.093 304.825 380.01 305.331 379.91 305.834C379.817 306.337 379.71 306.838 379.59 307.336C379.47 307.834 379.337 308.329 379.19 308.821C379.043 309.312 378.887 309.8 378.72 310.283C378.547 310.766 378.363 311.245 378.17 311.72C377.977 312.195 377.77 312.664 377.55 313.128C377.337 313.592 377.11 314.05 376.87 314.503C376.63 314.955 376.377 315.401 376.11 315.841C375.85 316.281 375.577 316.714 375.29 317.141C375.003 317.567 374.71 317.986 374.41 318.397C374.103 318.809 373.787 319.213 373.46 319.608C373.16 319.979 372.85 320.341 372.53 320.696C372.21 321.051 371.88 321.398 371.54 321.737C371.207 322.076 370.863 322.406 370.51 322.727C370.157 323.049 369.793 323.362 369.42 323.665C369.053 323.968 368.677 324.262 368.29 324.547C367.91 324.832 367.52 325.106 367.12 325.371C366.727 325.636 366.323 325.891 365.91 326.136C365.503 326.381 365.087 326.616 364.66 326.84C364.24 327.064 363.813 327.277 363.38 327.48C362.947 327.683 362.51 327.875 362.07 328.056C361.63 328.237 361.183 328.406 360.73 328.565C360.283 328.724 359.83 328.871 359.37 329.007C358.91 329.143 358.45 329.268 357.99 329.381C357.523 329.494 357.057 329.595 356.59 329.685C356.117 329.774 355.643 329.852 355.17 329.918C354.697 329.984 354.223 330.038 353.75 330.081C346.06 330.724 336.99 328.555 331.15 323.288C321.33 314.412 297.85 270.566 289.53 256.615L216.51 134.106C211.73 125.966 198.53 100.095 192.27 94.942C192.21 94.896 192.16 94.852 192.1 94.807C191.82 93.181 191.53 92.669 190.49 91.39C188.19 92.329 186.85 94.899 185.56 96.905C174.38 114.323 164.6 132.962 154.04 150.807L83.0601 270.735C73.9801 286.156 65.42 303.959 54.6 318.078C51.44 322.2 47.706 325.32 42.953 327.46C35.913 330.63 27.1671 331.274 19.8921 328.489C19.4194 328.309 18.9517 328.117 18.4891 327.914C18.0264 327.711 17.5687 327.497 17.1161 327.271C16.6634 327.046 16.2167 326.809 15.776 326.561C15.3354 326.313 14.9014 326.054 14.474 325.785C14.046 325.516 13.6247 325.236 13.2101 324.946C12.7961 324.656 12.3894 324.356 11.99 324.046C11.5907 323.736 11.1994 323.416 10.816 323.087C10.4327 322.757 10.0577 322.418 9.69102 322.07C9.32435 321.722 8.96638 321.365 8.61704 320.999C8.26771 320.634 7.92769 320.26 7.59702 319.877C7.26636 319.494 6.94534 319.104 6.63401 318.706C6.32268 318.307 6.02135 317.901 5.73002 317.488C5.43869 317.075 5.15773 316.654 4.88706 316.227C4.6164 315.8 4.35637 315.366 4.10703 314.926C3.8577 314.486 3.61971 314.04 3.39304 313.588C3.16571 313.137 2.9497 312.68 2.74503 312.217C2.55303 311.782 2.37207 311.343 2.20207 310.899C2.03207 310.456 1.87339 310.008 1.72605 309.556C1.57872 309.105 1.4427 308.65 1.31803 308.191C1.1927 307.733 1.0794 307.272 0.978066 306.807C0.876066 306.343 0.786047 305.877 0.708047 305.408C0.62938 304.939 0.562701 304.469 0.508035 303.997C0.453368 303.525 0.410401 303.052 0.379067 302.578C0.348401 302.104 0.329394 301.629 0.322061 301.154C0.314727 300.679 0.319061 300.204 0.335061 299.729C0.351728 299.254 0.380022 298.78 0.420022 298.306C0.460022 297.833 0.512028 297.361 0.576028 296.89C0.640028 296.419 0.715374 295.95 0.802041 295.483C0.889374 295.016 0.988371 294.551 1.09904 294.089C1.2097 293.627 1.33173 293.168 1.46507 292.712C1.5984 292.256 1.74303 291.804 1.89903 291.355C2.05503 290.906 2.22237 290.462 2.40104 290.021C8.56504 274.477 19.384 259.317 27.914 244.935L78.21 160.155L135.38 63.428C145.46 46.276 154.87 27.203 166.8 11.313C170.91 5.839 176.2 3.661 182.27 1.037Z" fill="#2C4657"/>
</svg>
